<?xml version="1.0" encoding="UTF-8"?>
<svg version="1.1" xmlns="http://www.w3.org/2000/svg" width="200" height="200">
<path d="M0 0 C5.34990796 2.29171166 10.55194969 2.46418142 16.29882812 2.76171875 C19.31378078 2.93537044 21.81714805 3.19555977 24.69921875 4.15625 C27.26879702 3.26764862 27.26879702 3.26764862 30.07421875 1.90625 C52.30136132 -7.67670967 74.34888444 -5.63515146 96.69921875 2.15625 C97.63636719 2.5584375 98.57351562 2.960625 99.5390625 3.375 C100.25191406 3.6328125 100.96476563 3.890625 101.69921875 4.15625 C102.35921875 3.82625 103.01921875 3.49625 103.69921875 3.15625 C106.01032676 3.02477104 108.32333381 2.9259515 110.63671875 2.84375 C117.61544554 2.48860275 123.28337338 0.81480366 129.69921875 -1.84375 C136.08878485 -4.19930646 141.01915167 -5.70540804 147.69921875 -3.84375 C154.1752772 -0.24152526 156.66734669 5.26317866 158.69921875 12.15625 C163.45363731 32.91270793 160.09812183 61.41211095 150.4765625 80.59375 C147.93011201 84.52396297 145.08889625 86.63330066 140.69921875 88.15625 C137.32421875 88.34375 137.32421875 88.34375 134.69921875 88.15625 C134.60511719 88.99027344 134.51101562 89.82429688 134.4140625 90.68359375 C130.54919073 109.45884515 113.95683609 128.29488655 98.53076172 138.93823242 C84.10034971 148.36400388 67.82607629 153.35496795 50.71313477 149.87768555 C38.66984308 146.9543844 27.74804573 140.51911752 18.69921875 132.15625 C17.735 131.28355469 16.77078125 130.41085938 15.77734375 129.51171875 C4.33618383 118.82916937 -4.24979413 106.02175682 -9.30078125 91.15625 C-9.30078125 90.16625 -9.30078125 89.17625 -9.30078125 88.15625 C-9.89246094 88.14207031 -10.48414062 88.12789063 -11.09375 88.11328125 C-15.23166178 87.86352149 -17.6697344 87.62953514 -21.05078125 85.09375 C-21.79328125 84.124375 -22.53578125 83.155 -23.30078125 82.15625 C-23.71972656 81.65738281 -24.13867188 81.15851563 -24.5703125 80.64453125 C-29.60452435 73.87648209 -30.76000231 65.26337375 -32.30078125 57.15625 C-32.52894531 55.98191406 -32.75710937 54.80757812 -32.9921875 53.59765625 C-34.29867074 45.54862317 -34.5296584 37.54872659 -34.61328125 29.40625 C-34.63100586 28.3646875 -34.64873047 27.323125 -34.66699219 26.25 C-34.65809138 16.89821435 -33.44668334 7.56748487 -27.30078125 0.15625 C-18.66425102 -7.83254047 -9.77800059 -4.39690484 0 0 Z M-22.91992188 5.43408203 C-28.12243946 11.92251184 -27.81181817 21.53009026 -27.73828125 29.40625 C-27.7321582 30.53361572 -27.72603516 31.66098145 -27.71972656 32.82250977 C-27.46186191 46.95250091 -26.55495672 68.10939079 -16.86328125 79.40625 C-14.46115174 81.34803453 -14.46115174 81.34803453 -11.73828125 81.40625 C-8.19441768 79.58888407 -6.88802419 76.66777808 -5.30078125 73.15625 C-4.2764547 69.92491203 -3.53331467 66.65183477 -2.80078125 63.34375 C1.47137793 45.27378236 1.47137793 45.27378236 7.69921875 38.15625 C7.69921875 37.49625 7.69921875 36.83625 7.69921875 36.15625 C9.34921875 36.15625 10.99921875 36.15625 12.69921875 36.15625 C13.39453125 37.87109375 13.39453125 37.87109375 13.69921875 40.15625 C12.44140625 42.28515625 12.44140625 42.28515625 10.57421875 44.71875 C5.73411462 51.89213142 4.15387043 59.67117981 2.21044922 68.00830078 C1.55804922 70.74937774 0.80927677 73.45407581 0.01171875 76.15625 C-0.30345703 77.2390625 -0.30345703 77.2390625 -0.625 78.34375 C-1.30078125 80.15625 -1.30078125 80.15625 -3.30078125 83.15625 C-3.02957446 88.72276935 -1.30300342 92.98341269 1.19921875 97.84375 C1.5545166 98.54000488 1.90981445 99.23625977 2.27587891 99.95361328 C12.38612449 119.18999936 28.96087727 135.30215715 49.84765625 142.1953125 C63.81280149 145.95921814 76.18823347 143.42552783 88.82421875 136.65625 C106.42658604 126.2971044 123.34653571 107.1396 128.69921875 87.15625 C128.55439802 83.60814201 127.7710815 81.31315034 126.29296875 78.0859375 C124.36379478 73.64487889 123.39111897 69.0512366 122.32421875 64.34375 C120.39427111 56.23413067 118.28696395 48.69344533 113.03125 42.046875 C111.69921875 40.15625 111.69921875 40.15625 112.01171875 37.90625 C112.35203125 37.04 112.35203125 37.04 112.69921875 36.15625 C114.34921875 36.15625 115.99921875 36.15625 117.69921875 36.15625 C117.98023438 36.72730469 118.26125 37.29835937 118.55078125 37.88671875 C119.28718064 39.34198422 120.05075604 40.78399516 120.84765625 42.20703125 C125.32797729 50.46851496 127.35503438 59.27455437 129.4375 68.38671875 C130.7942504 74.00321062 131.79785577 77.80897772 136.69921875 81.15625 C138.79731363 81.55086049 138.79731363 81.55086049 140.69921875 80.15625 C150.89588911 70.97924668 152.1528601 52.06633164 152.87207031 39.02099609 C152.98898027 35.71067589 153.0477679 32.40598476 153.07421875 29.09375 C153.09500488 27.54252441 153.09500488 27.54252441 153.11621094 25.95996094 C153.07321848 18.9476654 152.63244614 11.31834773 148.4597168 5.39746094 C145.75086802 2.72469361 143.8369318 2.16099873 140.07421875 2.03125 C136.48687445 2.7242597 133.38983302 4.14835096 130.07421875 5.65625 C124.29858456 8.21424027 119.20446416 8.78084809 112.92578125 8.91796875 C109.52435025 9.16916402 106.84211274 9.84439307 103.69921875 11.15625 C102.34482207 13.86504335 102.63420424 16.16558268 102.69921875 19.15625 C101.0330997 19.198971 99.3653899 19.19688832 97.69921875 19.15625 C96.69921875 18.15625 96.69921875 18.15625 96.6015625 16.30859375 C96.63411458 14.2578125 96.66666667 12.20703125 96.69921875 10.15625 C73.95877976 0.97927081 54.16296484 -0.27480887 31.015625 9.16796875 C30.25121094 9.49410156 29.48679688 9.82023437 28.69921875 10.15625 C28.69921875 12.79625 28.69921875 15.43625 28.69921875 18.15625 C26.62368227 18.7097264 24.85555911 19.15625 22.69921875 19.15625 C22.76109375 18.228125 22.82296875 17.3 22.88671875 16.34375 C22.97979981 13.22801444 22.97979981 13.22801444 21.44921875 11.34375 C17.74211379 8.82821449 13.80877804 9.07520435 9.44921875 8.96875 C2.72630759 8.56001955 -2.77757018 6.82745647 -8.96972656 4.23950195 C-14.63689797 1.87627143 -18.07535639 1.06819852 -22.91992188 5.43408203 Z " fill="#000000" transform="translate(37.30078125,26.84375)"/>
<path d="M0 0 C2.11182556 -0.01721465 4.22208543 -0.06110337 6.33349609 -0.10522461 C7.67853668 -0.11535193 9.02359056 -0.12386792 10.36865234 -0.13061523 C11.59181152 -0.14519775 12.8149707 -0.15978027 14.07519531 -0.17480469 C17.84202631 0.38254732 18.97070014 1.31070279 21.25146484 4.29516602 C22.25936312 7.10288264 22.41685533 8.68025267 21.64208984 11.56079102 C19.75348825 15.27433348 17.11755439 17.75190418 14.12646484 20.60766602 C13.56314453 21.15745117 12.99982422 21.70723633 12.41943359 22.27368164 C11.03684426 23.62112039 9.64505568 24.95910874 8.25146484 26.29516602 C12.62344316 30.77924634 17.31145635 34.77870983 22.11865234 38.79516602 C24.25146484 41.29516602 24.25146484 41.29516602 24.07177734 44.10766602 C23.80107422 44.82954102 23.53037109 45.55141602 23.25146484 46.29516602 C21.09912109 46.59594727 21.09912109 46.59594727 18.25146484 46.29516602 C15.49755859 44.21313477 15.49755859 44.21313477 12.68896484 41.48266602 C9.64450903 38.55644149 6.70113102 35.73834136 3.25146484 33.29516602 C0.13577079 34.69688138 -2.16003075 36.37925509 -4.68603516 38.67016602 C-5.38212891 39.28762695 -6.07822266 39.90508789 -6.79541016 40.54125977 C-8.34628922 41.93394917 -9.89206507 43.33232105 -11.43603516 44.73266602 C-14.11773314 46.54462412 -15.57628135 46.65770931 -18.74853516 46.29516602 C-19.67431641 44.21313477 -19.67431641 44.21313477 -19.74853516 41.29516602 C-17.80892802 38.70559677 -15.38945432 36.70077628 -12.93603516 34.60766602 C-12.28054687 34.02694336 -11.62505859 33.4462207 -10.94970703 32.84790039 C-9.73199464 31.76978246 -8.50819783 30.6984717 -7.27661133 29.63623047 C-6.05926369 28.56786642 -4.89381613 27.44044699 -3.74853516 26.29516602 C-4.67537109 25.42633789 -5.60220703 24.55750977 -6.55712891 23.66235352 C-7.76742009 22.49897284 -8.9770195 21.3348722 -10.18603516 20.17016602 C-10.79769531 19.60040039 -11.40935547 19.03063477 -12.03955078 18.44360352 C-14.88218117 15.67949883 -16.55546724 13.9222567 -17.74072266 10.07250977 C-17.75091046 6.45074437 -16.65752705 4.33541236 -14.74853516 1.29516602 C-10.45428895 -0.85195709 -4.76723484 0.02710542 0 0 Z M-8.74853516 6.29516602 C-9.73853516 7.78016602 -9.73853516 7.78016602 -10.74853516 9.29516602 C-6.78853516 13.25516602 -2.82853516 17.21516602 1.25146484 21.29516602 C5.27133894 19.28522897 7.39663479 17.35670212 10.50146484 14.17016602 C11.39349609 13.26008789 12.28552734 12.35000977 13.20458984 11.41235352 C13.88005859 10.71368164 14.55552734 10.01500977 15.25146484 9.29516602 C14.59146484 8.30516602 13.93146484 7.31516602 13.25146484 6.29516602 C10.96441944 5.83005649 10.96441944 5.83005649 8.31396484 5.89672852 C7.33685547 5.89286133 6.35974609 5.88899414 5.35302734 5.88500977 C4.32951172 5.89661133 3.30599609 5.90821289 2.25146484 5.92016602 C1.22794922 5.90856445 0.20443359 5.89696289 -0.85009766 5.88500977 C-1.82720703 5.88887695 -2.80431641 5.89274414 -3.81103516 5.89672852 C-5.15875 5.9018042 -5.15875 5.9018042 -6.53369141 5.90698242 C-7.63003906 6.0991333 -7.63003906 6.0991333 -8.74853516 6.29516602 Z " fill="#000000" transform="translate(97.74853515625,102.704833984375)"/>
<path d="M0 0 C5.8935065 5.36009863 10.77891873 13.57475744 12.125 21.5 C11.95996319 26.12103063 10.51506643 28.13111566 7.6953125 31.609375 C4.85022529 33.94313317 1.99047711 33.4627694 -1.55078125 33.359375 C-4.98567392 32.85537161 -6.72131798 31.5727055 -9 29 C-11.13874317 22.58377048 -10.21350574 18.96433523 -7.25 13 C-6.18460276 10.99038814 -5.10233917 8.98958776 -4 7 C-3.36191406 5.84757812 -3.36191406 5.84757812 -2.7109375 4.671875 C-1.82520756 3.10432417 -0.91595764 1.55008217 0 0 Z M0 15 C-2.40814077 18.51187196 -3.36629408 20.72656908 -3 25 C-1.02 25.99 -1.02 25.99 1 27 C2.32 26.01 3.64 25.02 5 24 C4.5206753 19.68607774 3.2542015 17.83430453 0 15 Z " fill="#000000" transform="translate(137,93)"/>
<path d="M0 0 C2.75329021 1.79562405 4.52627461 3.05254922 6 6 C6.37340899 10.94766914 6.22237243 14.11092983 3 18 C-0.09994892 19.89441323 -1.90775048 20.00323683 -5.5625 19.875 C-9.38445833 18.90213788 -10.74841774 18.20417475 -13 15 C-13.96957944 11.74498332 -14.16173435 9.67928427 -13.375 6.375 C-10.10437156 0.72573269 -6.42675351 -0.91810764 0 0 Z " fill="#000000" transform="translate(72,68)"/>
<path d="M0 0 C2.5 1.4375 2.5 1.4375 4 4 C4.73030446 8.57201019 4.87307635 12.50849457 2.5 16.5625 C-0.95325475 18.54812148 -4.02045931 19.2057019 -8 19 C-10.9291208 17.79014576 -12.42298609 16.76935187 -14.3125 14.25 C-15.32453615 10.93788168 -15.42314481 8.44560774 -15 5 C-10.32321763 -0.66136813 -7.09554482 -1.73882916 0 0 Z " fill="#000000" transform="translate(137,69)"/>
</svg>
