<?xml version="1.0" encoding="UTF-8" standalone="no"?>
<svg
   height="312.5"
   width="312.5"
   style="width: 312.5px; height: 312.5px; position: absolute; top: 50%; left: 50%; transform: translate(-50%, -50%) scale(1); z-index: 0; cursor: pointer; overflow: visible;"
   version="1.1"
   id="svg22"
   sodipodi:docname="logo.svg"
   xmlns:inkscape="http://www.inkscape.org/namespaces/inkscape"
   xmlns:sodipodi="http://sodipodi.sourceforge.net/DTD/sodipodi-0.dtd"
   xmlns="http://www.w3.org/2000/svg"
   xmlns:svg="http://www.w3.org/2000/svg">
  <sodipodi:namedview
     id="namedview24"
     pagecolor="#ffffff"
     bordercolor="#000000"
     borderopacity="0.25"
     inkscape:showpageshadow="2"
     inkscape:pageopacity="0.0"
     inkscape:pagecheckerboard="0"
     inkscape:deskcolor="#d1d1d1" />
  <defs
     id="SvgjsDefs1001" />
  <g
     id="SvgjsG1007"
     featurekey="rootContainer"
     transform="matrix(6.25,0,0,6.25,0.31249597668647766,0)"
     fill="#e37b58">
    <path
       d="M24.95 0a25 25 0 1 0 25 25 25 25 0 0 0-25-25zm0 46.91a22 22 0 1 1 22-22 22 22 0 0 1-22 21.99z"
       id="path3" />
    <path
       d="M24.95 3.65a21.3 21.3 0 1 0 21.3 21.3 21.33 21.33 0 0 0-21.3-21.3z"
       id="path5" />
  </g>
  <g
     id="SvgjsG1008"
     featurekey="2ou6gm-0"
     transform="matrix(1.1415393083459038,0,0,1.1415393083459038,98.9245271310673,66.01844968315734)"
     fill="#fef4e8">
    <g
       id="g16">
      <path
         d="M74.2737198,24.6875c-6.1474609-0.3457031-11.2353554,4.5654297-11.2353554,10.6640625   c0.0175781,2.5595703,2.1474648,4.6416016,4.7480507,4.6416016c0.6767578,0,1.3330078-0.1386719,1.953125-0.4140625v24.3291016   c0,7.7314453-6.3720741,14.2636719-13.9062538,14.2636719l-0.2363281-0.0019531   c-7.5341797-0.1269531-13.6640625-6.3632813-13.6640625-13.9013672v-0.8476563   c10.9726563-1.8925781,19.140625-11.5097656,19.140625-22.7236328V25.8789063c0-3.0566406-2.4873047-5.5439453-5.5439453-5.5439453   h-5.2490234c-0.4741211-0.7602539-1.3115234-1.2714844-2.2714844-1.2714844h-5.0048828   c-1.4794922,0-2.6835938,1.2041016-2.6835938,2.6835938v5.0048828c0,1.4794922,1.2041016,2.6835938,2.6835938,2.6835938h5.0048828   c0.9604492,0,1.7978516-0.5116577,2.2719727-1.2724609h2.9633789v12.1679688   c0,8.3554688-6.6240234,15.3496094-14.7724609,15.5917969c-4.2460938,0.1474609-8.2324219-1.4716797-11.2197266-4.4589844   c-2.8789063-2.8808594-4.4648438-6.7050781-4.4648438-10.7666016V28.1630859h2.9804688   c0.4736328,0.7608032,1.3110352,1.2724609,2.2714844,1.2724609h5.0048828c1.4794922,0,2.6835938-1.2041016,2.6835938-2.6835938   v-5.0048828c0-1.4794922-1.2041016-2.6835938-2.6835938-2.6835938H28.039341c-0.9599609,0-1.7973633,0.5112305-2.2709961,1.2714844   h-5.2661133c-3.0566406,0-5.5439444,2.4873047-5.5439444,5.5439453v14.8183594   c0,11.2148438,8.1708975,20.8320313,19.1464844,22.7236328v0.4267578c0,11.8652344,9.4550781,21.7978516,21.078125,22.1435547   C55.4016457,85.9970703,55.6203957,86,55.8352394,86c11.9834023,0,21.7334023-9.7490234,21.7334023-21.7314453V39.5791016   c1.7880859,0.7919922,3.9707031,0.375,5.3369141-0.9960938c0.8867188-0.8945313,1.3720703-2.0878906,1.3642578-3.3613281   c-0.0009766-0.2978516-0.015625-0.5976563-0.0429688-0.8984375C83.7668839,29.1259766,79.4885635,24.9833984,74.2737198,24.6875z    M48.6828957,26.7954102c-0.0234375,0.3557129-0.3129883,0.6401367-0.6738281,0.6401367h-5.0048828   c-0.3769531,0-0.6835938-0.3066406-0.6835938-0.6835938v-5.0048828c0-0.3769531,0.3066406-0.6835938,0.6835938-0.6835938h5.0048828   c0.3608398,0,0.6503906,0.2844238,0.6738281,0.6401367V26.7954102z M27.3567238,21.7470703   c0-0.3769531,0.3066406-0.6835938,0.6826172-0.6835938h5.0048828c0.3769531,0,0.6835938,0.3066406,0.6835938,0.6835938v5.0048828   c0,0.3769531-0.3066406,0.6835938-0.6835938,0.6835938H28.039341c-0.3759766,0-0.6826172-0.3066406-0.6826172-0.6835938V21.7470703   z"
         id="path8" />
      <circle
         cx="73.6545792"
         cy="18.1328125"
         r="4.1328125"
         id="circle10" />
      <path
         d="M78.8108292,24.1679688c0.7109375,0.7109375,1.6455078,1.0664063,2.5800781,1.0664063   s1.8691406-0.3554688,2.5810547-1.0664063c1.4228516-1.4228516,1.4228516-3.7392578,0-5.1621094   c-1.4238281-1.4238281-3.7392578-1.421875-5.1611328,0C77.3879776,20.4287109,77.3879776,22.7451172,78.8108292,24.1679688z"
         id="path12" />
      <path
         d="M65.9162979,25.2333984c0.9345703,0,1.8691406-0.3564453,2.5810547-1.0673828   c1.4228516-1.4238281,1.4228516-3.7392578,0-5.1611328c-1.3789063-1.3789063-3.7841797-1.3789063-5.1611366,0   c-0.6894531,0.6884766-1.0693359,1.6054688-1.0693359,2.5800781s0.3798828,1.8916016,1.0693359,2.5810547   C64.0471573,24.8769531,64.9817276,25.2333984,65.9162979,25.2333984z"
         id="path14" />
    </g>
  </g>
  <g
     id="SvgjsG1009"
     featurekey="kZnDdN-0"
     transform="matrix(2.9524654016407816,0,0,2.9524654016407816,53.63802764349124,171.0091533590567)"
     fill="#ffffff">
    <path
       d="M0.8 20 l0 -15.6 l6.88 0 c1.96 0 3.48 0.5 4.54 1.5 c1.06 1.02 1.58 2.28 1.58 3.74 c0 1.54 -0.52 2.82 -1.58 3.82 s-2.56 1.52 -4.54 1.52 l-2.88 0 l0 5.02 l-4 0 z M4.8 11.78 l2.66 0 c1.54 0 2.3 -0.7 2.3 -2.12 c0 -0.6 -0.18 -1.08 -0.56 -1.48 s-0.96 -0.58 -1.74 -0.58 l-2.66 0 l0 4.18 z M15.4 20 l0 -15.6 l11.98 0 l0 3.88 l-7.98 0 l0 2.24 l5.62 0 l0 3.62 l-5.62 0 l0 2 l7.98 0 l0 3.86 l-11.98 0 z M33.84 20 l0 -11.72 l-4.86 0 l0 -3.88 l13.72 0 l0 3.88 l-4.86 0 l0 11.72 l-4 0 z M44.3 15.36 l0 -3.74 l6.06 0 l0 3.74 l-6.06 0 z M51.959999999999994 20 l6.32 -15.6 l3.96 0 l6.3 15.6 l-4.36 0 l-1.26 -3.48 l-5.3 0 l-1.3 3.48 l-4.36 0 z M58.86 13.280000000000001 l2.78 -0.02 l-1.38 -3.74 z"
       id="path19" />
  </g>
</svg>
