<svg xmlns="http://www.w3.org/2000/svg" viewBox="0 0 420.86 375.91"><defs><style>.b839e6b3-a771-4ff3-8dbb-128a88260b9c{fill:#b2dfed;}.e655cf09-eb62-46dd-8f48-252eb7bd83c0{fill:#e3f7ff;}.e2dd348a-c405-4f59-89dd-2f0b6cd285b8{fill:#ffe293;}.f0030e5e-efd8-4edf-b6f5-6fae18288e0c{fill:#ffd460;}.f8de8eaf-10b3-48e6-a578-c0f9b9568caf{fill:#e5bf56;}.fc9d8ca9-d580-4f7a-b57d-734615b079b3{fill:#3e4f66;}.e848724f-cb72-40ea-aff9-cd031bf43f13{fill:#ea5455;}.a101d2e8-bd3b-4790-80a4-f6f0d270faa2{fill:#d34c4c;}.ba769b20-0ad6-4cd9-afd6-18beba77f770{fill:#2d4059;}.e111edee-9028-494e-9ec1-3cd7025d59a7{fill:#707d8e;}.a603fdeb-6560-4e53-ade0-3dd151c714fc{fill:#283a50;}.a7637533-38e3-465a-a5cf-3aecf009ce83{fill:none;stroke:#fff;stroke-miterlimit:10;stroke-width:0.25px;}.b276dedf-0a28-45a9-8389-2c5b08c18779{fill:#d1f2ff;}.e733be12-7539-4ccc-8196-d39963d3a1e3{fill:#a0c66d;}.b4c7096f-2b2d-4925-a026-920b24c473d0{fill:#92b564;}.b4aa8b57-4a21-4943-bbc7-a95ef3570450{fill:#243347;}.b6ddcff5-003b-42d9-ab33-a9aed9487885{fill:#1f2d3e;}.a7092237-f578-498d-b9cb-4f0c9a8c0c98{fill:#fff;}.f9761e39-ed6e-4176-9b06-23d7451f3b39{fill:#d2edf7;}</style></defs><g id="f174c686-9ce5-431c-b4e6-b21c684764e3" data-name="Objects"><path class="b839e6b3-a771-4ff3-8dbb-128a88260b9c" d="M79.22,126.47H236.45c10.65-34.54-23.89-34.22-37.78-32,5.49-65.54-56.49-52.62-77.8-14.85-16.14-26.47-30.35-5.17-32.29,14.2C76.31,84.82,64.37,108.72,79.22,126.47Z" transform="translate(-40.1 -48.06)"/><path class="b839e6b3-a771-4ff3-8dbb-128a88260b9c" d="M300.62,110.79l134.79,1.35c12.69-29.6-13.46-19.1-26-18.41,20.63-54.57-59.67-60-51.09-17.52-11.81-25-42.82-10.39-46.36,6.58C302,73.63,289.14,93.67,300.62,110.79Z" transform="translate(-40.1 -48.06)"/><path class="e655cf09-eb62-46dd-8f48-252eb7bd83c0" d="M252.94,423.17c-94.31,7.19-157.51-35.68-189.32-78.08-33.37-44.51-35.6-110.52,22-142.6,56.39-31.41,62.72-47,84.09-90.3,28.92-58.6,105.32-63,158.45,3.06,48.74,60.64,104,61.47,120.44,124.51C460.52,285.63,454.93,407.77,252.94,423.17Z" transform="translate(-40.1 -48.06)"/><path class="e2dd348a-c405-4f59-89dd-2f0b6cd285b8" d="M106.7,228.31c20.54,3.57,20.69,0,10,58-11.15,60.63-7,61.15-29.53,56.63s-22.08.59-12.45-61.53C83.41,225.45,81.45,223.93,106.7,228.31Z" transform="translate(-40.1 -48.06)"/><path class="f0030e5e-efd8-4edf-b6f5-6fae18288e0c" d="M100.33,262.06c8.34,1.45,14.53,1.19,10.2,24.73-4.53,24.62-9,23.64-18.12,21.8s-14-1.16-10.08-26.38C85.85,259.5,90.08,260.28,100.33,262.06Z" transform="translate(-40.1 -48.06)"/><path class="f8de8eaf-10b3-48e6-a578-c0f9b9568caf" d="M98.37,302.89a1.41,1.41,0,1,1,2-.17A1.41,1.41,0,0,1,98.37,302.89Z" transform="translate(-40.1 -48.06)"/><path class="f8de8eaf-10b3-48e6-a578-c0f9b9568caf" d="M97.17,291.88a1.42,1.42,0,1,1,2-.18A1.42,1.42,0,0,1,97.17,291.88Z" transform="translate(-40.1 -48.06)"/><path class="f8de8eaf-10b3-48e6-a578-c0f9b9568caf" d="M89.12,304.65a1.42,1.42,0,1,1,2-.18A1.42,1.42,0,0,1,89.12,304.65Z" transform="translate(-40.1 -48.06)"/><path class="f8de8eaf-10b3-48e6-a578-c0f9b9568caf" d="M104.3,294.54a1.41,1.41,0,1,1,2-.18A1.41,1.41,0,0,1,104.3,294.54Z" transform="translate(-40.1 -48.06)"/><path class="f8de8eaf-10b3-48e6-a578-c0f9b9568caf" d="M106.09,283.25a1.41,1.41,0,1,1,2-.17A1.41,1.41,0,0,1,106.09,283.25Z" transform="translate(-40.1 -48.06)"/><path class="f8de8eaf-10b3-48e6-a578-c0f9b9568caf" d="M95.75,281.59a1.41,1.41,0,1,1,2-.17A1.41,1.41,0,0,1,95.75,281.59Z" transform="translate(-40.1 -48.06)"/><path class="f8de8eaf-10b3-48e6-a578-c0f9b9568caf" d="M103.43,272.73a1.42,1.42,0,1,1,2-.18A1.42,1.42,0,0,1,103.43,272.73Z" transform="translate(-40.1 -48.06)"/><path class="f8de8eaf-10b3-48e6-a578-c0f9b9568caf" d="M86.78,295.32a1.42,1.42,0,1,1,2-.18A1.42,1.42,0,0,1,86.78,295.32Z" transform="translate(-40.1 -48.06)"/><path class="f8de8eaf-10b3-48e6-a578-c0f9b9568caf" d="M93.55,270.67a1.42,1.42,0,1,1,2-.18A1.42,1.42,0,0,1,93.55,270.67Z" transform="translate(-40.1 -48.06)"/><path class="f8de8eaf-10b3-48e6-a578-c0f9b9568caf" d="M86.86,280.09a1.41,1.41,0,1,1,2-.18A1.41,1.41,0,0,1,86.86,280.09Z" transform="translate(-40.1 -48.06)"/><polygon class="fc9d8ca9-d580-4f7a-b57d-734615b079b3" points="336.59 204.29 343.91 200.7 353.28 218.28 349.36 219.82 336.59 204.29"/><path class="f0030e5e-efd8-4edf-b6f5-6fae18288e0c" d="M257.06,148.85c32.31,1.47,89.44,35,130.81,99l-13.43,6.32c-34-46.63-69.69-87.45-132.26-95.75A23.18,23.18,0,0,1,257.06,148.85Z" transform="translate(-40.1 -48.06)"/><path class="e848724f-cb72-40ea-aff9-cd031bf43f13" d="M89.62,169.37a10.51,10.51,0,0,1-6.09-7.67c-.81-4.22,14.44-3.17,14.44-3.17,1.22.33.28,7.32.28,7.32A11.32,11.32,0,0,1,89.62,169.37Z" transform="translate(-40.1 -48.06)"/><path class="e848724f-cb72-40ea-aff9-cd031bf43f13" d="M145.52,213.92s-1.66.59-4.27,1.47-6.3,2.09-10.2,3.32c-9.37,2.94-20.22,6-22.36,5-3.92-1.76-12.58-33.65-19.07-54.35l8.63-3.52c10.32,20.41,19.44,42,19.44,42s31.74-18.34,39.91-26.09C163.41,195.75,145.52,213.92,145.52,213.92Z" transform="translate(-40.1 -48.06)"/><path class="a101d2e8-bd3b-4790-80a4-f6f0d270faa2" d="M141.25,215.39c-2.65.89-6.3,2.09-10.2,3.32,2.58-5.32,4.71-14.67,5.77-17.3C139.42,205.29,140.67,211.23,141.25,215.39Z" transform="translate(-40.1 -48.06)"/><rect class="ba769b20-0ad6-4cd9-afd6-18beba77f770" x="42.25" y="161.68" width="9.54" height="6.46" transform="translate(-73.33 -34.69) rotate(-11.99)"/><rect class="e111edee-9028-494e-9ec1-3cd7025d59a7" x="45.08" y="160.58" width="2.69" height="8.9" transform="translate(86.03 268.75) rotate(168.01)"/><rect class="ba769b20-0ad6-4cd9-afd6-18beba77f770" x="128.65" y="143.33" width="9.54" height="6.46" transform="translate(254.27 214.14) rotate(168.01)"/><rect class="ba769b20-0ad6-4cd9-afd6-18beba77f770" x="50.83" y="150.54" width="78.78" height="10.39" transform="translate(-70.48 -25.91) rotate(-11.99)"/><rect class="e111edee-9028-494e-9ec1-3cd7025d59a7" x="132.67" y="141.97" width="2.69" height="8.9" transform="translate(-67.59 -17.02) rotate(-11.99)"/><path class="a603fdeb-6560-4e53-ade0-3dd151c714fc" d="M122.06,170h0a4.89,4.89,0,0,1-5.8-3.76l-6.5-30.59a4.89,4.89,0,0,1,3.77-5.8h0a4.89,4.89,0,0,1,5.8,3.77l6.49,30.58A4.88,4.88,0,0,1,122.06,170Z" transform="translate(-40.1 -48.06)"/><path class="a603fdeb-6560-4e53-ade0-3dd151c714fc" d="M131.3,164h0a4.89,4.89,0,0,1-5.8-3.76l-4.82-22.71a4.89,4.89,0,0,1,3.77-5.8h0a4.88,4.88,0,0,1,5.79,3.77l4.83,22.71A4.88,4.88,0,0,1,131.3,164Z" transform="translate(-40.1 -48.06)"/><path class="a603fdeb-6560-4e53-ade0-3dd151c714fc" d="M67,181.75h0a4.89,4.89,0,0,0,3.76-5.8l-6.49-30.58a4.89,4.89,0,0,0-5.8-3.77h0a4.89,4.89,0,0,0-3.77,5.8L61.15,178A4.89,4.89,0,0,0,67,181.75Z" transform="translate(-40.1 -48.06)"/><path class="a603fdeb-6560-4e53-ade0-3dd151c714fc" d="M56,180h0a4.89,4.89,0,0,0,3.77-5.8L55,151.44a4.88,4.88,0,0,0-5.8-3.76h0a4.88,4.88,0,0,0-3.76,5.8l4.82,22.71A4.89,4.89,0,0,0,56,180Z" transform="translate(-40.1 -48.06)"/><path class="e848724f-cb72-40ea-aff9-cd031bf43f13" d="M101.28,156.67c2.61,2.6.51,6.21-3,9.18l-1.91-4.94c-2,.33-6.06,1.05-6.31-2.74S98.68,154.07,101.28,156.67Z" transform="translate(-40.1 -48.06)"/><path class="e848724f-cb72-40ea-aff9-cd031bf43f13" d="M93.4,147.07c4.18-.56,3.28,9.25,1.63,9.75S88.65,147.7,93.4,147.07Z" transform="translate(-40.1 -48.06)"/><path class="e848724f-cb72-40ea-aff9-cd031bf43f13" d="M88.66,147.82c4.32-1.1,4.16,9.31,2.56,9.94S84.64,148.85,88.66,147.82Z" transform="translate(-40.1 -48.06)"/><path class="e848724f-cb72-40ea-aff9-cd031bf43f13" d="M84.13,149.48c4.35-1.75,4.82,7.64,3.52,8.45S80.71,150.86,84.13,149.48Z" transform="translate(-40.1 -48.06)"/><path class="e848724f-cb72-40ea-aff9-cd031bf43f13" d="M80.5,150.85c2.75-2,5.48,6.47,4.53,7.36S77.94,152.69,80.5,150.85Z" transform="translate(-40.1 -48.06)"/><path class="a7637533-38e3-465a-a5cf-3aecf009ce83" d="M91.67,161a13.09,13.09,0,0,0,5.67.74" transform="translate(-40.1 -48.06)"/><path class="b276dedf-0a28-45a9-8389-2c5b08c18779" d="M239.41,308.11c-96.3,2-116.72,14.68-90.94,23.63s37.95,14,5.37,14.32-39.74,16.47,16.83,14,46.87,11.05,26.49,12.53c-37.69,2.73-36.63,32.72,6,32s43.07,3.08,56.32,3.79,86.23.07,104.19.36c47.54.75,48.33-15.75,4.65-18.26s-54.34-52.66-14.64-53S375.82,305.25,239.41,308.11Z" transform="translate(-40.1 -48.06)"/><path class="e848724f-cb72-40ea-aff9-cd031bf43f13" d="M240,331.22c-.15.11,0,.18,0,.18S240.1,331.33,240,331.22Zm6.1-175.75q-2,1.4-3.88,2.94c-.9-.76-1.8-1.5-2.71-2.22-27.69-21.62-58.92-18.92-79.76-2.36-33.17,26.36-40,87.81,35.57,142.11,10.85,7.78,40.8,31.95,44.68,35.11,3-2.29,20.86-16,34.3-25.88,3.41-2.52,6.53-4.78,9.05-6.54.81-.57,1.54-1.08,2.21-1.53,26.73-18.18,43.56-37.47,52.76-56.08.59-1.21,1.16-2.42,1.7-3.62a81.25,81.25,0,0,0,7.09-28.11C350.2,156.69,294.19,121,246.06,155.47Z" transform="translate(-40.1 -48.06)"/><path class="a101d2e8-bd3b-4790-80a4-f6f0d270faa2" d="M347.07,209.29A81.25,81.25,0,0,1,340,237.4c-.54,1.2-1.11,2.41-1.7,3.62,1.93-8.43-1.68-25.18-4.11-30.85A32.81,32.81,0,0,1,347.07,209.29Z" transform="translate(-40.1 -48.06)"/><path class="a101d2e8-bd3b-4790-80a4-f6f0d270faa2" d="M283.31,298.63c-2.52,1.76-5.64,4-9.05,6.54-59.31-64.46-54.15-129.83-34.79-149,.91.72,1.81,1.46,2.71,2.22q1.94-1.54,3.88-2.94C226.57,208.14,263.1,269.36,283.31,298.63Z" transform="translate(-40.1 -48.06)"/><path class="ba769b20-0ad6-4cd9-afd6-18beba77f770" d="M410.63,294.92,263.12,335,281,400.67a8,8,0,0,0,9.85,5.64l132-35.91a8,8,0,0,0,5.64-9.85Z" transform="translate(-40.1 -48.06)"/><path class="fc9d8ca9-d580-4f7a-b57d-734615b079b3" d="M416.17,293.42,257.58,336.55l-5.11-18.81a13,13,0,0,1,9.12-15.95l133.52-36.31a13,13,0,0,1,15.95,9.12Z" transform="translate(-40.1 -48.06)"/><path class="fc9d8ca9-d580-4f7a-b57d-734615b079b3" d="M372,342.72c.2.77.38,1.54.51,2.31a27.14,27.14,0,0,1-52.21,14.12c-.28-.71-.5-1.44-.71-2.18s-.38-1.56-.52-2.35a27.15,27.15,0,0,1,52.21-14.12C371.55,341.22,371.79,342,372,342.72Z" transform="translate(-40.1 -48.06)"/><path class="e733be12-7539-4ccc-8196-d39963d3a1e3" d="M372,342.72c.2.77.38,1.54.51,2.31l-9.44,2.57a3.82,3.82,0,0,1-3.68-1l-3.58-3.57-1,18.89a3.77,3.77,0,0,1-2.79,3.45l-.11,0a3.76,3.76,0,0,1-4.17-1.78l-12-20.76-2.47,10.69a3.8,3.8,0,0,1-2.7,2.81l-10.19,2.77c-.28-.71-.5-1.44-.71-2.18s-.38-1.56-.52-2.35l9.66-2.63,2.87-12.39a3.8,3.8,0,0,1,7-1l11.66,20.11,1-17.88a3.71,3.71,0,0,1,2.42-3.33,3.76,3.76,0,0,1,4,.85l4.63,4.62,8.94-2.43C371.55,341.22,371.79,342,372,342.72Z" transform="translate(-40.1 -48.06)"/><path class="e733be12-7539-4ccc-8196-d39963d3a1e3" d="M215.48,309.2c0,27.17-21.18,44.26-47.31,44.26-20.33,0-37.67-10.35-44.35-27.76a45.87,45.87,0,0,1-2.94-16.5c0-27.17,21.17-40.73,47.29-40.73,11.47,0,22,2.61,30.18,7.85C208.81,283,215.48,294,215.48,309.2Z" transform="translate(-40.1 -48.06)"/><path class="b4c7096f-2b2d-4925-a026-920b24c473d0" d="M215.48,309.2c0,27.17-21.18,44.26-47.31,44.26-20.33,0-37.67-10.35-44.35-27.76.25.29.48.53.69.73a36.4,36.4,0,0,0,19.1,8.9c11,1.64,22.41-1.31,32.2-6.57,10.37-5.55,19.49-14,23.79-24.8,3.51-8.86,3.3-19.37-1.25-27.64C208.81,283,215.48,294,215.48,309.2Z" transform="translate(-40.1 -48.06)"/><path class="b4c7096f-2b2d-4925-a026-920b24c473d0" d="M176.42,278.26c0,1.76-3.25,3.2-7.33,3.29h-.41c-.51,0-1,0-1.48-.05-3.57-.3-6.26-1.64-6.26-3.24s2.9-3,6.68-3.26c.35,0,.7,0,1.06,0s.89,0,1.32,0C173.65,275.29,176.42,276.64,176.42,278.26Z" transform="translate(-40.1 -48.06)"/><path class="b4aa8b57-4a21-4943-bbc7-a95ef3570450" d="M180.28,250.64c-3.62,2.44-8.15,12.53-10.28,24.38-.39,2.13-.7,4.32-.91,6.53h-.41c-.51,0-1,0-1.48-.05.09-2.29.24-4.45.42-6.5,1.16-12.85,4.11-21.15,9.38-27.21Z" transform="translate(-40.1 -48.06)"/><path class="b6ddcff5-003b-42d9-ab33-a9aed9487885" d="M177,247.79c.82-.94,4.1,2.3,3.28,2.85S176.36,248.53,177,247.79Z" transform="translate(-40.1 -48.06)"/><g id="f8684237-0eaa-4fc5-a648-6592c12b6c0f" data-name="Artwork 48"><path class="e733be12-7539-4ccc-8196-d39963d3a1e3" d="M169,269.49l-.64.14c-.4.08-1,.18-1.68.25a26.58,26.58,0,0,1-11.94-1.52,27.26,27.26,0,0,1-6.35-3.36,26.47,26.47,0,0,1-8.83-10.58,26.4,26.4,0,0,1-1.74-5.11c-.16-.69-.26-1.27-.32-1.68s-.07-.65-.07-.65l.63-.14c.41-.08,1-.18,1.69-.25a26.13,26.13,0,0,1,5.41,0,25.71,25.71,0,0,1,6.54,1.52,26.87,26.87,0,0,1,6.34,3.37,27.51,27.51,0,0,1,5.24,4.91,26.62,26.62,0,0,1,5.33,10.79c.16.69.25,1.27.31,1.68S169,269.49,169,269.49Z" transform="translate(-40.1 -48.06)"/></g><path class="e848724f-cb72-40ea-aff9-cd031bf43f13" d="M395.84,161.26a10.51,10.51,0,0,0,4.24-8.83c-.15-4.29-14.79.11-14.79.11-1.11.6,1.36,7.2,1.36,7.2A11.31,11.31,0,0,0,395.84,161.26Z" transform="translate(-40.1 -48.06)"/><path class="e848724f-cb72-40ea-aff9-cd031bf43f13" d="M330.41,182.62c9.69,5.74,44.35,20,44.35,20s6.35-20.69,11.89-42.89l9.19,1.52c-1.74,21.63-6.46,53.56-9.89,56.14s-57.16-5-57.16-5A146.6,146.6,0,0,1,330.41,182.62Z" transform="translate(-40.1 -48.06)"/><rect class="ba769b20-0ad6-4cd9-afd6-18beba77f770" x="431.62" y="144.24" width="9.54" height="6.46" transform="translate(834.74 240.66) rotate(179.18)"/><rect class="e111edee-9028-494e-9ec1-3cd7025d59a7" x="435.65" y="143" width="2.69" height="8.9" transform="translate(-42.15 -41.83) rotate(-0.81)"/><rect class="ba769b20-0ad6-4cd9-afd6-18beba77f770" x="343.31" y="145.49" width="9.54" height="6.46" transform="translate(-42.17 -43.09) rotate(-0.81)"/><rect class="ba769b20-0ad6-4cd9-afd6-18beba77f770" x="352.84" y="142.9" width="78.78" height="10.39" transform="translate(-42.16 -42.46) rotate(-0.81)"/><rect class="e111edee-9028-494e-9ec1-3cd7025d59a7" x="346.12" y="144.28" width="2.69" height="8.9" transform="translate(656.92 244.45) rotate(179.19)"/><path class="a603fdeb-6560-4e53-ade0-3dd151c714fc" d="M364.36,169.11h0a4.89,4.89,0,0,0,4.82-5l-.45-31.26a4.89,4.89,0,0,0-5-4.82h0a4.89,4.89,0,0,0-4.82,5l.44,31.26A4.89,4.89,0,0,0,364.36,169.11Z" transform="translate(-40.1 -48.06)"/><path class="a603fdeb-6560-4e53-ade0-3dd151c714fc" d="M354,165.23h0a4.9,4.9,0,0,0,4.82-5l-.34-23.21a4.88,4.88,0,0,0-5-4.82h0a4.89,4.89,0,0,0-4.82,5l.33,23.21A4.89,4.89,0,0,0,354,165.23Z" transform="translate(-40.1 -48.06)"/><path class="a603fdeb-6560-4e53-ade0-3dd151c714fc" d="M420.69,168.31h0a4.88,4.88,0,0,1-4.95-4.82l-.45-31.26a4.89,4.89,0,0,1,4.82-5h0a4.89,4.89,0,0,1,5,4.82l.44,31.26A4.89,4.89,0,0,1,420.69,168.31Z" transform="translate(-40.1 -48.06)"/><path class="a603fdeb-6560-4e53-ade0-3dd151c714fc" d="M430.94,164.14h0a4.89,4.89,0,0,1-5-4.82l-.33-23.22a4.88,4.88,0,0,1,4.82-4.95h0a4.89,4.89,0,0,1,5,4.82l.33,23.21A4.89,4.89,0,0,1,430.94,164.14Z" transform="translate(-40.1 -48.06)"/><path class="e848724f-cb72-40ea-aff9-cd031bf43f13" d="M381.65,151.46c-2,3.12.88,6.17,5,8.28l.76-5.23c2-.12,6.14-.32,5.54-4.08S383.61,148.35,381.65,151.46Z" transform="translate(-40.1 -48.06)"/><path class="e848724f-cb72-40ea-aff9-cd031bf43f13" d="M387.21,140.36c-4.2.38-1.15,9.75.57,9.86S392,139.92,387.21,140.36Z" transform="translate(-40.1 -48.06)"/><path class="e848724f-cb72-40ea-aff9-cd031bf43f13" d="M392,140c-4.45-.12-2,10-.29,10.26S396.15,140.15,392,140Z" transform="translate(-40.1 -48.06)"/><path class="e848724f-cb72-40ea-aff9-cd031bf43f13" d="M396.78,140.65c-4.63-.74-3,8.52-1.56,9S400.43,141.24,396.78,140.65Z" transform="translate(-40.1 -48.06)"/><path class="e848724f-cb72-40ea-aff9-cd031bf43f13" d="M400.63,141.18c-3.12-1.32-3.91,7.53-2.78,8.19S403.53,142.41,400.63,141.18Z" transform="translate(-40.1 -48.06)"/><path class="a7637533-38e3-465a-a5cf-3aecf009ce83" d="M392,153.51a13.13,13.13,0,0,1-5.36,2" transform="translate(-40.1 -48.06)"/><path class="e733be12-7539-4ccc-8196-d39963d3a1e3" d="M171.1,379.09a15,15,0,0,1,14.89-15l62-.3a15,15,0,0,1,.15,29.94l-62,.3A15,15,0,0,1,171.1,379.09Z" transform="translate(-40.1 -48.06)"/><path class="a7092237-f578-498d-b9cb-4f0c9a8c0c98" d="M171.1,379.09a15,15,0,0,1,14.89-15l31.37-.15.14,29.94-31.37.15A15,15,0,0,1,171.1,379.09Z" transform="translate(-40.1 -48.06)"/><path class="a7092237-f578-498d-b9cb-4f0c9a8c0c98" d="M219.67,337.93a13,13,0,0,1,18.24,1.94l33.71,41.8A13,13,0,0,1,251.42,398l-33.71-41.8A13,13,0,0,1,219.67,337.93Z" transform="translate(-40.1 -48.06)"/><path class="ba769b20-0ad6-4cd9-afd6-18beba77f770" d="M219.67,337.93a13,13,0,0,1,18.24,1.94L255,361l-20.2,16.29-17.06-21.16A13,13,0,0,1,219.67,337.93Z" transform="translate(-40.1 -48.06)"/><polygon class="fc9d8ca9-d580-4f7a-b57d-734615b079b3" points="210.32 235.79 218.74 232.78 229.42 252.32 223.91 253.56 210.32 235.79"/><path class="f0030e5e-efd8-4edf-b6f5-6fae18288e0c" d="M247.91,285.55c-38.94-53.33-47.78-139,9.15-136.7a88.64,88.64,0,0,0-14.88,9.56c-7.31,12.24-24.78,44.53,21.24,122.49Z" transform="translate(-40.1 -48.06)"/><path class="fc9d8ca9-d580-4f7a-b57d-734615b079b3" d="M254.91,278.18a2.92,2.92,0,1,1-2.92-2.92A2.91,2.91,0,0,1,254.91,278.18Z" transform="translate(-40.1 -48.06)"/><path class="fc9d8ca9-d580-4f7a-b57d-734615b079b3" d="M380.7,246.48a2.91,2.91,0,1,1-2.91-2.91A2.91,2.91,0,0,1,380.7,246.48Z" transform="translate(-40.1 -48.06)"/><g id="f929814a-669b-4ddf-892f-9f50a93c8e1e" data-name="Artwork 54"><path class="e733be12-7539-4ccc-8196-d39963d3a1e3" d="M56.45,239.07a42.44,42.44,0,0,0,.94-4.88,45.43,45.43,0,0,0,.39-4.95,48.65,48.65,0,0,0-.17-5,45.39,45.39,0,0,0-.72-4.91,46.74,46.74,0,0,0-1.27-4.78l-.2-.6c-.09-.26.32-.38.41-.12a44.91,44.91,0,0,1,1.35,4.83,46.33,46.33,0,0,1,.79,4.95,46.18,46.18,0,0,1,.24,5,44.37,44.37,0,0,1-.32,5,43.33,43.33,0,0,1-.88,4.92l-.15.61a.21.21,0,0,1-.41-.11Z" transform="translate(-40.1 -48.06)"/><path class="e733be12-7539-4ccc-8196-d39963d3a1e3" d="M57,220.32c1.55-2.86,2.62-7.62,3.79-10.59,1.29-3.28,2.31-7,.36-10a4.09,4.09,0,0,0-2.34-1.84,4.58,4.58,0,0,0-4.22,1.23,6.6,6.6,0,0,0-1.62,3.5,22.5,22.5,0,0,0,4,17.69" transform="translate(-40.1 -48.06)"/><path class="e733be12-7539-4ccc-8196-d39963d3a1e3" d="M57.94,230.23c2.84-1.23,6.41-4.16,9-5.7,2.88-1.69,5.78-3.84,6-7.27a4,4,0,0,0-.74-2.75,4.52,4.52,0,0,0-4-1.57A6.1,6.1,0,0,0,65,214.6a20.8,20.8,0,0,0-7.09,15.63" transform="translate(-40.1 -48.06)"/><path class="e733be12-7539-4ccc-8196-d39963d3a1e3" d="M57.61,235.21c-.35-3.5-2.1-8.68-2.81-12.13-.77-3.8-2-7.88-5.18-10.09a4,4,0,0,0-2.83-.84,3.49,3.49,0,0,0-2.65,3,8.46,8.46,0,0,0,.64,4.17,31.36,31.36,0,0,0,12.83,15.91" transform="translate(-40.1 -48.06)"/></g><path class="ba769b20-0ad6-4cd9-afd6-18beba77f770" d="M61.73,218.66A3.77,3.77,0,1,1,58,214.9,3.77,3.77,0,0,1,61.73,218.66Z" transform="translate(-40.1 -48.06)"/><path class="ba769b20-0ad6-4cd9-afd6-18beba77f770" d="M56.91,227a1.69,1.69,0,1,1-3.37,0,1.69,1.69,0,0,1,3.37,0Z" transform="translate(-40.1 -48.06)"/><g id="ba100ae3-c8b1-4010-af15-dee5c4ca2ddc" data-name="Artwork 54"><path class="ba769b20-0ad6-4cd9-afd6-18beba77f770" d="M412,250a42.72,42.72,0,0,0,1.68-4.68,44.52,44.52,0,0,0,1.13-4.83,43.58,43.58,0,0,0,.1-14.82c0-.21-.06-.41-.1-.62s.37-.33.42-.06a45.62,45.62,0,0,1,.63,10,45.48,45.48,0,0,1-1.61,9.88,44.72,44.72,0,0,1-1.62,4.73c-.07.19-.15.38-.24.58s-.49.09-.39-.17Z" transform="translate(-40.1 -48.06)"/><path class="ba769b20-0ad6-4cd9-afd6-18beba77f770" d="M415.43,231.51c2-2.6,3.75-7.13,5.36-9.89,1.77-3,3.34-6.52,1.87-9.82a4.07,4.07,0,0,0-2-2.17,4.57,4.57,0,0,0-4.35.57,6.53,6.53,0,0,0-2.14,3.21,22.49,22.49,0,0,0,1.29,18.1" transform="translate(-40.1 -48.06)"/><path class="ba769b20-0ad6-4cd9-afd6-18beba77f770" d="M414.8,241.44c3-.79,7-3.14,9.78-4.25,3.1-1.24,6.3-2.93,7.07-6.27a4,4,0,0,0-.31-2.84,4.56,4.56,0,0,0-3.67-2.15,6,6,0,0,0-3.48,1.15,20.81,20.81,0,0,0-9.39,14.36" transform="translate(-40.1 -48.06)"/><path class="ba769b20-0ad6-4cd9-afd6-18beba77f770" d="M413.72,246.31c.19-3.51-.76-8.9-.93-12.41-.19-3.87-.76-8.1-3.58-10.76a4,4,0,0,0-2.67-1.27,3.53,3.53,0,0,0-3.08,2.55,8.45,8.45,0,0,0,0,4.21,31.27,31.27,0,0,0,10.26,17.68" transform="translate(-40.1 -48.06)"/></g><path class="e848724f-cb72-40ea-aff9-cd031bf43f13" d="M420.31,230.58a3.77,3.77,0,1,1-3.15-4.29A3.77,3.77,0,0,1,420.31,230.58Z" transform="translate(-40.1 -48.06)"/><path class="e848724f-cb72-40ea-aff9-cd031bf43f13" d="M414.27,238.08a1.68,1.68,0,1,1-1.4-1.92A1.68,1.68,0,0,1,414.27,238.08Z" transform="translate(-40.1 -48.06)"/><g id="bcdde117-8b5a-4e09-a461-0b1915d8885c" data-name="Artwork 54"><path class="ba769b20-0ad6-4cd9-afd6-18beba77f770" d="M124.72,404.79a36,36,0,0,1-1-4.13,39.44,39.44,0,0,1-.5-4.2,37.45,37.45,0,0,1,.4-8.46,38.26,38.26,0,0,1,.9-4.12l.15-.52c.07-.22-.28-.31-.35-.09A38.14,38.14,0,0,0,122.84,396a38.15,38.15,0,0,0,.45,4.27,37.26,37.26,0,0,0,.93,4.16l.15.52c.06.22.41.12.35-.11Z" transform="translate(-40.1 -48.06)"/><path class="ba769b20-0ad6-4cd9-afd6-18beba77f770" d="M123.53,388.82c-1.42-2.38-2.51-6.4-3.62-8.89-1.21-2.75-2.22-5.85-.66-8.51a3.51,3.51,0,0,1,1.92-1.65,3.92,3.92,0,0,1,3.64.89,5.69,5.69,0,0,1,1.52,2.93,19.21,19.21,0,0,1-2.8,15.23" transform="translate(-40.1 -48.06)"/><path class="ba769b20-0ad6-4cd9-afd6-18beba77f770" d="M123.12,397.31c-2.46-.95-5.61-3.32-7.89-4.53-2.52-1.34-5.07-3.07-5.41-6a3.48,3.48,0,0,1,.53-2.38,3.89,3.89,0,0,1,3.32-1.48,5.26,5.26,0,0,1,2.84,1.3,17.75,17.75,0,0,1,6.61,13.07" transform="translate(-40.1 -48.06)"/><path class="ba769b20-0ad6-4cd9-afd6-18beba77f770" d="M123.8,401.48c.14-2.38,1.18-5.94,1.56-8.3.41-2.6,1.12-5.41,3.22-7a2.71,2.71,0,0,1,1.9-.66,2.38,2.38,0,0,1,1.88,2,5.65,5.65,0,0,1-.31,2.84,21.19,21.19,0,0,1-8.25,11.16" transform="translate(-40.1 -48.06)"/></g><circle class="f0030e5e-efd8-4edf-b6f5-6fae18288e0c" cx="82.63" cy="352.78" r="1.24"/><path class="f0030e5e-efd8-4edf-b6f5-6fae18288e0c" d="M124.61,396.18a1.24,1.24,0,1,1-1.24-1.24A1.24,1.24,0,0,1,124.61,396.18Z" transform="translate(-40.1 -48.06)"/><path class="f0030e5e-efd8-4edf-b6f5-6fae18288e0c" d="M124.66,388.33a1.24,1.24,0,1,1-1.24-1.24A1.24,1.24,0,0,1,124.66,388.33Z" transform="translate(-40.1 -48.06)"/><g id="b412ed4c-af4b-43cd-80b5-3a2f9497ec4f" data-name="Artwork 54"><path class="ba769b20-0ad6-4cd9-afd6-18beba77f770" d="M300.44,134.4a36.49,36.49,0,0,1,.72-4.18,38,38,0,0,1,1.19-4.07,38.68,38.68,0,0,1,3.7-7.62,35.76,35.76,0,0,1,2.46-3.43l.34-.42c.14-.18-.14-.4-.29-.22a37.75,37.75,0,0,0-4.67,7.16,39.74,39.74,0,0,0-1.69,3.91,38.88,38.88,0,0,0-1.27,4.1,37.23,37.23,0,0,0-.78,4.19c0,.18,0,.36-.07.53a.18.18,0,0,0,.36.05Z" transform="translate(-40.1 -48.06)"/><path class="ba769b20-0ad6-4cd9-afd6-18beba77f770" d="M305.64,119.25c-.37-2.75.21-6.88.17-9.6,0-3,.26-6.25,2.74-8.08a3.47,3.47,0,0,1,2.41-.76,3.91,3.91,0,0,1,3,2.25,5.64,5.64,0,0,1,.24,3.29,19.24,19.24,0,0,1-8.56,12.9" transform="translate(-40.1 -48.06)"/><path class="ba769b20-0ad6-4cd9-afd6-18beba77f770" d="M301.92,126.89c-1.89-1.84-3.85-5.26-5.47-7.27-1.79-2.22-3.45-4.82-2.62-7.63a3.4,3.4,0,0,1,1.43-2,3.83,3.83,0,0,1,3.63-.06,5.3,5.3,0,0,1,2.1,2.31,17.77,17.77,0,0,1,.93,14.62" transform="translate(-40.1 -48.06)"/><path class="ba769b20-0ad6-4cd9-afd6-18beba77f770" d="M300.91,131c1.06-2.14,3.42-5,4.69-7,1.41-2.22,3.16-4.53,5.72-5.16a2.76,2.76,0,0,1,2,.15,2.37,2.37,0,0,1,1,2.53,5.73,5.73,0,0,1-1.4,2.49,21.34,21.34,0,0,1-12,7" transform="translate(-40.1 -48.06)"/></g><path class="f0030e5e-efd8-4edf-b6f5-6fae18288e0c" d="M301.31,130.46a1.24,1.24,0,0,1-2.28-1,1.25,1.25,0,0,1,1.63-.66A1.24,1.24,0,0,1,301.31,130.46Z" transform="translate(-40.1 -48.06)"/><path class="f0030e5e-efd8-4edf-b6f5-6fae18288e0c" d="M303.73,126.43a1.23,1.23,0,1,1-.65-1.62A1.23,1.23,0,0,1,303.73,126.43Z" transform="translate(-40.1 -48.06)"/><path class="f0030e5e-efd8-4edf-b6f5-6fae18288e0c" d="M306.87,119.24a1.24,1.24,0,1,1-.65-1.63A1.24,1.24,0,0,1,306.87,119.24Z" transform="translate(-40.1 -48.06)"/><circle class="e733be12-7539-4ccc-8196-d39963d3a1e3" cx="128.9" cy="59.3" r="14.12"/><polygon class="a7092237-f578-498d-b9cb-4f0c9a8c0c98" points="131.22 56.98 131.22 52.05 126.58 52.05 126.58 56.98 121.64 56.98 121.64 61.62 126.58 61.62 126.58 66.55 131.22 66.55 131.22 61.62 136.15 61.62 136.15 56.98 131.22 56.98"/><circle class="e733be12-7539-4ccc-8196-d39963d3a1e3" cx="411.12" cy="235.05" r="9.75"/><polygon class="a7092237-f578-498d-b9cb-4f0c9a8c0c98" points="412.72 233.45 412.72 230.04 409.52 230.04 409.52 233.45 406.11 233.45 406.11 236.65 409.52 236.65 409.52 240.05 412.72 240.05 412.72 236.65 416.12 236.65 416.12 233.45 412.72 233.45"/><circle class="e733be12-7539-4ccc-8196-d39963d3a1e3" cx="63.34" cy="334.3" r="14.04" transform="translate(-316.89 295.22) rotate(-80.78)"/><polygon class="a7092237-f578-498d-b9cb-4f0c9a8c0c98" points="25.55 283.94 25.55 279.03 20.94 279.03 20.94 283.94 16.03 283.94 16.03 288.55 20.94 288.55 20.94 293.46 25.55 293.46 25.55 288.55 30.45 288.55 30.45 283.94 25.55 283.94"/><circle class="f9761e39-ed6e-4176-9b06-23d7451f3b39" cx="234.72" cy="98.81" r="4.48" transform="translate(59.5 266.62) rotate(-80.78)"/><path class="f9761e39-ed6e-4176-9b06-23d7451f3b39" d="M101.66,102.72A3.73,3.73,0,1,1,97.94,99,3.72,3.72,0,0,1,101.66,102.72Z" transform="translate(-40.1 -48.06)"/><path class="f9761e39-ed6e-4176-9b06-23d7451f3b39" d="M149.85,74.77a2.92,2.92,0,1,1-2.92-2.91A2.92,2.92,0,0,1,149.85,74.77Z" transform="translate(-40.1 -48.06)"/><circle class="f9761e39-ed6e-4176-9b06-23d7451f3b39" cx="336.97" cy="39.17" r="9.13"/><path class="f9761e39-ed6e-4176-9b06-23d7451f3b39" d="M393,117.79a3.19,3.19,0,1,1-3.19-3.18A3.19,3.19,0,0,1,393,117.79Z" transform="translate(-40.1 -48.06)"/><path class="f9761e39-ed6e-4176-9b06-23d7451f3b39" d="M344.16,108a1.91,1.91,0,1,1-1.91-1.91A1.91,1.91,0,0,1,344.16,108Z" transform="translate(-40.1 -48.06)"/><path class="f9761e39-ed6e-4176-9b06-23d7451f3b39" d="M446.9,190.39a2.76,2.76,0,1,1-2.76-2.76A2.77,2.77,0,0,1,446.9,190.39Z" transform="translate(-40.1 -48.06)"/><path class="a7092237-f578-498d-b9cb-4f0c9a8c0c98" d="M55.91,271.47a3.61,3.61,0,1,1-3.61-3.61A3.61,3.61,0,0,1,55.91,271.47Z" transform="translate(-40.1 -48.06)"/><path class="a7092237-f578-498d-b9cb-4f0c9a8c0c98" d="M353.5,260.65a3.4,3.4,0,1,1-3.39-3.4A3.39,3.39,0,0,1,353.5,260.65Z" transform="translate(-40.1 -48.06)"/><path class="a7092237-f578-498d-b9cb-4f0c9a8c0c98" d="M246.52,133.71a3.82,3.82,0,1,1-3.82-3.82A3.82,3.82,0,0,1,246.52,133.71Z" transform="translate(-40.1 -48.06)"/><circle class="a7092237-f578-498d-b9cb-4f0c9a8c0c98" cx="239.75" cy="37.47" r="2.33"/></g></svg>