<svg xmlns="http://www.w3.org/2000/svg" viewBox="0 0 1324.85 1030"><defs><style>.ac4b3f63-67a9-4572-8ea9-729899d94b8c,.e9f4ffb1-471d-4dcf-a13c-ec85d3a6308a{fill:#a1362d;}.e96b23a5-8556-4caa-830c-1f7eb79a7fbd{fill:#ff9d76;}.f5d542bc-6a36-4a9f-8792-57d908b20f8c,.f6d80368-afe3-465d-be59-4e6f6447574a{fill:#49263e;}.a3c35b85-6abe-4092-9fd0-a4573809cf66,.f9752b02-25bd-480a-a1e2-3d912ac665ec{fill:#f9c164;}.a5c9ff23-b157-45b5-92aa-fee3edb2c9a6,.ffe413b0-d2e1-4bbd-bbf3-d10fb2954fa0{fill:#fff;}.a085bdfc-53cb-45ec-83c6-3eb5b79a9721,.ac4b3f63-67a9-4572-8ea9-729899d94b8c,.b988056b-3365-4d0a-afa2-cf548ca3543e,.b9f5c9b2-9129-4e08-8f16-d25643b3a48f,.f6d80368-afe3-465d-be59-4e6f6447574a,.f9752b02-25bd-480a-a1e2-3d912ac665ec,.ffe413b0-d2e1-4bbd-bbf3-d10fb2954fa0{fill-rule:evenodd;}.b988056b-3365-4d0a-afa2-cf548ca3543e{fill:#ea9a53;}.a085bdfc-53cb-45ec-83c6-3eb5b79a9721,.fc4e7cd2-3b24-4600-b4d1-37a9a2fb1cb0{fill:#b76043;}.acb65cca-18f9-41d1-a266-f9d3cf1efaf9,.b9f5c9b2-9129-4e08-8f16-d25643b3a48f{fill:#75434b;}.f6eb4fb7-c9c5-46ff-ad37-00d9598ac43c{fill:#ef685e;}.a18daecc-83b8-46e4-b015-8f2f7d7187ed{fill:#c77965;}.f0e4463b-4588-4f5d-a930-9f5dff2cfa52{fill:#f75454;}.a69eb842-b9cb-485d-ba02-ae9894b019e9{fill:#dacac2;}.e950d20d-5055-49b5-9a8e-a417cadea542{fill:#a1362e;}</style></defs><g id="a4b9e385-e59a-4beb-9931-69e09cd48395" data-name="Layer 2"><g id="b76171df-3d14-4a14-a9ee-edb973e2db06" data-name="&lt;Layer&gt;"><path class="e9f4ffb1-471d-4dcf-a13c-ec85d3a6308a" d="M809.69,852.1s-8.55-78.3,46.1-100.36,76.49,57.41,77.48,50.18-32.59-146.34,12.91-184,73,45.89,73,45.89-6.9-32.67,26.68-30.51,17.34,96.84,17.34,96.84,37.17-46.2,72.21-34.14-30,125.8-30,125.8,55.42-28.31,68.24,11.93-32.5,74.73-32.5,74.73,66.85,17.19,71.66,71.5c4.05,45.77,3.19,47.28,3.19,47.28l-477.14.4c-.75.74-17.8-74.42,7.54-97.77s8.5-41.7,27.22-65.68S809.69,852.1,809.69,852.1Z"/><path class="e96b23a5-8556-4caa-830c-1f7eb79a7fbd" d="M174.34,214.9c10.81-6,20.65-27.21,17.72-33,0,0-24.18-43.36-29.51-44.3S144.74,151.4,141,156.21,126.82,166.52,129,173.16s6,47.72,6,47.72l16.88,43.19,42.17-7.52Z"/><polygon class="f5d542bc-6a36-4a9f-8792-57d908b20f8c" points="176.48 128.67 208.43 128.67 194.8 206.08 176.48 206.08 158.16 206.08 144.54 128.67 176.48 128.67"/><path class="a3c35b85-6abe-4092-9fd0-a4573809cf66" d="M140.08,128.23l4.81-10.11a4.18,4.18,0,0,1,3.82-2.27h56.4a4.2,4.2,0,0,1,3.83,2.27l4.81,10.11c1.17,2.47-.84,5.21-3.83,5.21h-66C140.92,133.44,138.9,130.7,140.08,128.23Z"/><path class="f5d542bc-6a36-4a9f-8792-57d908b20f8c" d="M1010,740.69c7.22-26.29,23.4-49.31,42.16-68.73a76.46,76.46,0,0,1,33.75-20.21c5.72-1.7,11.54-3,17.38-4.26,31.56,36.82,46.49,136.17,26,172.57-20.83,37.13,16.93,103,29,119.82s-33.89,85.82-33.89,85.82l-36.48.62a5.41,5.41,0,0,1-4.37-8.72c26.55-34.22,35.28-54.6,11.81-95.39-22.3-38.75-38.62-71.87-46.61-108.77a74.12,74.12,0,0,0-42.5-51.94A121.67,121.67,0,0,1,1010,740.69Z"/><path class="f5d542bc-6a36-4a9f-8792-57d908b20f8c" d="M876.53,683.6c20.69,7.48,44.16,55.37,32.54,100.33S861.25,907.47,852,938c-5,16.57-24.05,88.51-36.91,89l-18.67.64c-5.66.19-8.92-7.25-5.88-13.45,5-10.1,11.09-24.28,14.1-37.63C809,957.35,835.32,736,837.51,659.77,837.51,659.77,855.85,676.11,876.53,683.6Z"/><path class="f5d542bc-6a36-4a9f-8792-57d908b20f8c" d="M751.46,454.08c4.22-8.26,43.2,7.08,54.25,6.29s7.69-22.82,25.43-21.87,73.6,4.27,79.58,17.2c2.69,5.81,8.15,40.84,12.78,75.58a79.42,79.42,0,0,0,70.06,68.46c64.52,7.1,159.72,19.65,192.66,39.69-.06-.17,61.54,24.64,64.55,101.64,2.36,60.42,27,94.47,68.48,66.59,2.8-1.88,7.19.48,5,3.06-9.11,10.86-19.44,20.78-44.79,18.2-37.43-3.81-43.61-26.56-48.34-54.08-.37,18.39-3.32,34.53-9.32,45.22-20.84,37.13,16.93,103,28.94,119.82s-33.88,85.82-33.88,85.82l-36.49.62a5.4,5.4,0,0,1-4.36-8.72c26.55-34.22,35.27-54.6,11.81-95.39-22.3-38.75-38.63-71.87-46.62-108.77-6.9-31.88-34.06-55.32-66.56-58.15-9.32-.81-19.13-1.31-29-1.27-45.53.17-94.25,64.15-148.85,29.59-30.46-19.28-42.63-60.68-52.36-93.23-12.85-43-20.33-89.64-16.73-134.52.85-10.66,3.41-23.92-1-34.19-5.08-11.79-20.48,8.38-52.8,9S747.23,462.33,751.46,454.08Z"/><path class="a5c9ff23-b157-45b5-92aa-fee3edb2c9a6" d="M1137.48,808.49a2.5,2.5,0,0,0,.55,0,2.59,2.59,0,0,0,2-3.07c-3.76-17.38-14.09-31.65-29.88-41.25-21.51-13.09-51.6-16.69-78.55-9.41a96.38,96.38,0,0,0-21.76,8.78c-.81.46-1.62.93-2.42,1.41a2.58,2.58,0,0,0,2.67,4.41c.75-.46,1.5-.89,2.27-1.32a90.51,90.51,0,0,1,20.59-8.3c25.23-6.84,54.48-3.37,74.52,8.83,14.55,8.85,24.07,22,27.53,37.94A2.57,2.57,0,0,0,1137.48,808.49Z"/><path class="f5d542bc-6a36-4a9f-8792-57d908b20f8c" d="M855.35,442.1c1.54-4.65,7-5.46,11.2-6.37a57.83,57.83,0,0,1,16.18-1.13c4.35.31,34.82,12.95,39.59,19.89,4.57,6.64,1.5,12.57-6.12,14.28-5.68,1.28-11,1.29-13.74,7.32-2.42,5.25-2.51,11.74-3.24,17.39-.74,5.82-1.38,11.66-2.25,17.46-.58,3.8-1.42,7.86-3.65,11.08-4.13,6-11.59,5.63-16.63,1-7-6.42-6.57-17.84-9-26.34-2.68-9.55-6.73-18.64-9.62-28.12C855.75,460.81,852.7,450.09,855.35,442.1Z"/><path class="a5c9ff23-b157-45b5-92aa-fee3edb2c9a6" d="M821.75,462.09a2.08,2.08,0,0,1-1.63-2.43l.65-3.25a2.07,2.07,0,1,1,4.06.8l-.65,3.25A2.07,2.07,0,0,1,821.75,462.09Z"/><path class="a5c9ff23-b157-45b5-92aa-fee3edb2c9a6" d="M756.32,477.1a17.33,17.33,0,0,0,9.53-2.65c7.32-4.68,8.57-13.8,8.62-14.19a2.58,2.58,0,0,0-5.11-.66c0,.07-1,7.17-6.31,10.53-3.46,2.19-8.12,2.39-13.88.59a2.55,2.55,0,0,0-3.23,1.68,2.57,2.57,0,0,0,1.69,3.22A29.07,29.07,0,0,0,756.32,477.1Z"/><path class="a5c9ff23-b157-45b5-92aa-fee3edb2c9a6" d="M884.34,539.14a11.47,11.47,0,0,0,7.91-3.08c6.33-5.72,9.37-19.24,9.55-42.56.06-8.6,2.07-14.85,6-18.59a12.41,12.41,0,0,1,8.34-3.56,2.64,2.64,0,0,0,2.67-2.47,2.58,2.58,0,0,0-2.44-2.68,17.72,17.72,0,0,0-12,4.9c-5,4.72-7.57,12.25-7.65,22.37-.16,21.17-2.8,34.21-7.85,38.77a6.64,6.64,0,0,1-5.26,1.71c-.17,0-1.15-.21-2.92-2.39-11.54-14.19-25.23-69.9-23.68-83.87a2.58,2.58,0,0,0-5.12-.57c-1.83,16.45,13.18,73.4,24.8,87.69,2.17,2.67,4.28,4.06,6.44,4.27C883.49,539.11,883.92,539.14,884.34,539.14Z"/><path class="f5d542bc-6a36-4a9f-8792-57d908b20f8c" d="M921,740c21.17,6,58.48-5.24,50.13,40.45s-23.45,125-30.49,156.12c-3.82,16.89-17.6,90-30.4,91.38l-18.58,2c-5.62.6-9.41-6.59-6.83-13,4.21-10.43,9.32-25,11.36-38.55,2.93-19.44-5-180.86-9.63-208.45C886.56,770,899.83,734.06,921,740Z"/><path class="a5c9ff23-b157-45b5-92aa-fee3edb2c9a6" d="M966.75,803.55a2.59,2.59,0,0,0,2.49-1.94c.21-.82,20.89-81.53,23.47-89.07a2.58,2.58,0,1,0-4.88-1.66c-2.64,7.73-22.73,86.12-23.58,89.46a2.58,2.58,0,0,0,1.86,3.13A2.8,2.8,0,0,0,966.75,803.55Z"/><path class="a5c9ff23-b157-45b5-92aa-fee3edb2c9a6" d="M891.22,839.48A2.57,2.57,0,0,0,893.8,837c.05-3.36,1.07-82.43-15.26-102.61C863,715.14,835,656.69,834.67,656.1a2.58,2.58,0,0,0-4.65,2.22c1.16,2.43,28.58,59.58,44.52,79.27,15.16,18.72,14.12,98.48,14.11,99.28a2.57,2.57,0,0,0,2.53,2.61Z"/><path class="ac4b3f63-67a9-4572-8ea9-729899d94b8c" d="M181.62,1026.53s-68.53-51.2-59.16-79.37S178.18,938,178.18,938s-46.34-75.24-20.6-109.77,97.18,35.36,97.18,35.36-92-174.62-28.51-214.95,75.53,117.72,75.53,109.94-4.23-62.24,27.92-58.19,22.52,103.39,22.52,103.39,45.15-73.53,78.89-40.08,27.26,81.68,27.26,81.68,42.15-45.12,81-22.65S573,887.82,573,887.82s28.87,87.87,90,55.23,166.48,84.16,166.48,84.16Z"/><path class="f5d542bc-6a36-4a9f-8792-57d908b20f8c" d="M168.2,165.61a2.18,2.18,0,0,0,1.86-3.31l-5.74-9.42a2.17,2.17,0,0,0-3.71,2.27l5.73,9.41A2.17,2.17,0,0,0,168.2,165.61Z"/><rect class="a3c35b85-6abe-4092-9fd0-a4573809cf66" x="339.95" y="954.9" width="69.88" height="41.71"/><polygon class="f9752b02-25bd-480a-a1e2-3d912ac665ec" points="577.5 951.62 595.68 1008.25 661.35 980.58 641.79 930.98 577.5 951.62"/><polygon class="b988056b-3365-4d0a-afa2-cf548ca3543e" points="310.1 403.57 331.06 954.9 414.05 954.9 433.39 673.28 470.17 467.17 403.31 380.35 310.1 403.57"/><polygon class="b988056b-3365-4d0a-afa2-cf548ca3543e" points="370.7 470.24 570.84 954.9 648.7 933.28 575.16 685.18 540.43 449.27 423.74 401.15 370.7 470.24"/><path class="f5d542bc-6a36-4a9f-8792-57d908b20f8c" d="M440.41,648a3,3,0,0,0,.66-.08,2.58,2.58,0,0,0,1.83-3.15L411.72,526.44a2.6,2.6,0,0,0-2-1.87L383,519.44a2.54,2.54,0,0,0-3,2,2.56,2.56,0,0,0,2,3l25.08,4.83,30.77,116.73A2.58,2.58,0,0,0,440.41,648Z"/><path class="f5d542bc-6a36-4a9f-8792-57d908b20f8c" d="M577.23,686.17a2.57,2.57,0,0,0,1.09-4.91l-31-14.39a2.58,2.58,0,0,0-2.17,4.68l31,14.38A2.61,2.61,0,0,0,577.23,686.17Z"/><path class="f5d542bc-6a36-4a9f-8792-57d908b20f8c" d="M323.52,693.43h43.37a2.58,2.58,0,0,0,0-5.15H323.52a2.58,2.58,0,1,0,0,5.15Z"/><path class="a085bdfc-53cb-45ec-83c6-3eb5b79a9721" d="M577.23,562.43s-12-259-28.71-353c-10.35-58.21-96.54-58.48-116-60-11.61-.92-58.46.19-58.46.19s-44.42,5.47-71.19,26.18c-21.09,16.33-55.69,98.2-64.15,114.25l-44.68-77.4-49,38.9S189.33,431.5,254.55,403.63c17-7.27,37.3-28.31,53.59-47.68l3.57,87H487.27l10.34,119.91Z"/><path class="b9f5c9b2-9129-4e08-8f16-d25643b3a48f" d="M477.2,16.17C462-3.52,440.73,12.79,441.78,17.7,441.3,6.5,428.68-1.21,413,.16s-17.58,20-17.58,20S376,21.24,372.74,37s4.33,59.17,4.33,59.17l3,6.81s13,4.88,15.23,6,67.61-48.77,67.61-48.77S493.46,37.21,477.2,16.17Z"/><path class="e96b23a5-8556-4caa-830c-1f7eb79a7fbd" d="M462.29,64.38c.48-3.73.86-7.46,1.08-11.21.19-3.22,1.11-8-.87-10.79-2.22-3.18-11.28-3-19.77-1.35-10.13,1.94-28-5.4-28-5.4S409,84.23,399,70.71c-3-4.06-8.67-5.86-12.71-.43-4.7,6.31,3.09,14.32,3.09,14.32C386,104,377.08,96.12,377.08,96.12l-6.93,44.19c-.55,8.44,8.91,19.38,25.5,21.62,20.67,2.81,33.24-12.81,33.24-12.81l2.93-23.41c11.64,1.54,21.51-4.26,23.05-14.3,2.38-15.45,5.3-30.86,7.34-46.38C462.24,64.81,462.27,64.6,462.29,64.38Z"/><path class="f6d80368-afe3-465d-be59-4e6f6447574a" d="M370.7,996.61c0-13.68-9.85-19.49-23.24-17.77-10.32,1.32-14.83,11.27-15,15.64v2.13l-50.46,20c-6.67,2.18-5.11,12,1.91,12H408.54l1.3-32.06Z"/><path class="f6d80368-afe3-465d-be59-4e6f6447574a" d="M621.57,996.61c-9.54-14.11-14.38-18.25-27.77-16.53-10.32,1.32-10.31,10-10.52,14.4v2.13l-50.46,20c-6.67,2.18-5.1,12,1.91,12h98.68l36.8-28.22-13.75-30.84Z"/><path class="f6eb4fb7-c9c5-46ff-ad37-00d9598ac43c" d="M399.45,81.9A2.58,2.58,0,0,0,402,79.25c0-.26-.26-6.35-5.21-8.9a7.55,7.55,0,0,0-6.56-.63A7.39,7.39,0,0,0,386.32,74a2.58,2.58,0,0,0,4.89,1.62,2.23,2.23,0,0,1,1-1.18,3.24,3.24,0,0,1,2.22.45c2.25,1.16,2.43,4.48,2.43,4.52A2.58,2.58,0,0,0,399.45,81.9Z"/><path class="acb65cca-18f9-41d1-a266-f9d3cf1efaf9" d="M439.51,65.1a2.57,2.57,0,0,0,1.7-4.51c-5.71-5-13.42-1.29-13.74-1.13a2.57,2.57,0,0,0,2.27,4.62c.05,0,5-2.34,8.07.38A2.57,2.57,0,0,0,439.51,65.1Z"/><path class="acb65cca-18f9-41d1-a266-f9d3cf1efaf9" d="M461.76,67.82a2.58,2.58,0,0,0,1.55-4.64c-5.08-3.8-11-.45-11.3-.3a2.57,2.57,0,0,0,2.55,4.47c.1,0,3.34-1.78,5.66,0A2.59,2.59,0,0,0,461.76,67.82Z"/><path class="f6eb4fb7-c9c5-46ff-ad37-00d9598ac43c" d="M447.7,92.92a2.74,2.74,0,0,0,.64-.08l6.67-1.7a2.58,2.58,0,0,0,1.91-2.88l-3.38-22.54a2.57,2.57,0,0,0-5.09.76l3,20.24-4.41,1.12a2.58,2.58,0,0,0,.63,5.08Z"/><path class="f6eb4fb7-c9c5-46ff-ad37-00d9598ac43c" d="M432.3,126.92a25.82,25.82,0,0,0,9.55-1.79c-.67-3.47-1.23-6.2-1.33-6.36-.29-.43-42.66,2-42.66,2l34.64,26.27Z"/><path class="acb65cca-18f9-41d1-a266-f9d3cf1efaf9" d="M410.45,128.43a25.71,25.71,0,0,1-9.38-4.34c-3.7-2.92-6.88-8-6.22-12.92L401,52.53l13.73-16.81c0,.83-4.29,50.28-4.29,50.28s-1.18,13.45,13.69,6.71c9.23-4.18,32.91,0,33.29,3.13-1.42,14.1-3.18,28.11-6.86,30.75-10.12,7.27-26.72,5-38,2.35C411.81,128.79,411.13,128.62,410.45,128.43Z"/><path class="f5d542bc-6a36-4a9f-8792-57d908b20f8c" d="M442.11,105.68a10.83,10.83,0,0,0,7.54-3.64,2.57,2.57,0,0,0-3.82-3.45c-.31.34-3,3.11-5.44,1.3-1.53-1.14-.83-3.72-.83-3.74a2.57,2.57,0,1,0-4.92-1.5c-.68,2.24-.88,6.73,2.69,9.37A7.86,7.86,0,0,0,442.11,105.68Z"/><path class="f5d542bc-6a36-4a9f-8792-57d908b20f8c" d="M267,344.22a2.48,2.48,0,0,0,1.23-.32,2.57,2.57,0,0,0,1-3.49L241,288.83a2.58,2.58,0,0,0-4.52,2.48l28.29,51.57A2.57,2.57,0,0,0,267,344.22Z"/><polygon class="a085bdfc-53cb-45ec-83c6-3eb5b79a9721" points="360.27 152.96 371.94 128.89 388.77 160.4 431.43 132.84 454.27 151.32 422.87 195.16 395.42 173.75 376.86 192.87 360.27 152.96"/><path class="f5d542bc-6a36-4a9f-8792-57d908b20f8c" d="M406.33,203.17a2.56,2.56,0,0,0,1.75-.69L446,167.2a2.58,2.58,0,1,0-3.51-3.77l-35.26,32.81-16.1-36.87a2.58,2.58,0,0,0-4.41-.53l-21.3,27.95-3.88-28.94a2.58,2.58,0,1,0-5.11.69l4.72,35.1a2.57,2.57,0,0,0,1.89,2.15,2.54,2.54,0,0,0,2.71-.93l22.41-29.41L404,201.63a2.56,2.56,0,0,0,1.83,1.49A3.17,3.17,0,0,0,406.33,203.17Z"/><path class="f5d542bc-6a36-4a9f-8792-57d908b20f8c" d="M382.56,442.21a2.57,2.57,0,0,0,2.52-2.06c.09-.45,8.83-45.31-3.48-110.86-12.91-68.71,9.44-160.63,9.67-161.55a2.58,2.58,0,0,0-5-1.24c-.23.94-22.85,93.92-9.74,163.74,12.12,64.49,3.59,108.45,3.5,108.89a2.58,2.58,0,0,0,2,3A2.21,2.21,0,0,0,382.56,442.21Z"/><path class="a5c9ff23-b157-45b5-92aa-fee3edb2c9a6" d="M349,1002.74a2.57,2.57,0,0,0,.54-5.09L333,994.09a2.58,2.58,0,1,0-1.08,5l16.54,3.55A2.64,2.64,0,0,0,349,1002.74Z"/><path class="a5c9ff23-b157-45b5-92aa-fee3edb2c9a6" d="M332.42,1010.82a2.57,2.57,0,0,0,.66-5.06l-17.63-4.64a2.57,2.57,0,0,0-1.31,5l17.62,4.63A2.56,2.56,0,0,0,332.42,1010.82Z"/><path class="a5c9ff23-b157-45b5-92aa-fee3edb2c9a6" d="M599.39,1002.74a2.57,2.57,0,0,0,.54-5.09l-16.55-3.56a2.58,2.58,0,1,0-1.08,5l16.54,3.55A2.64,2.64,0,0,0,599.39,1002.74Z"/><path class="a5c9ff23-b157-45b5-92aa-fee3edb2c9a6" d="M582.84,1010.82a2.57,2.57,0,0,0,.66-5.06l-17.63-4.64a2.57,2.57,0,1,0-1.31,5l17.62,4.63A2.61,2.61,0,0,0,582.84,1010.82Z"/><path class="f5d542bc-6a36-4a9f-8792-57d908b20f8c" d="M398.28,956.57a2.58,2.58,0,0,0,2.57-2.45L406,848.29a2.58,2.58,0,0,0-2.45-2.7,2.63,2.63,0,0,0-2.7,2.45l-5.18,105.83a2.57,2.57,0,0,0,2.44,2.7Z"/><path class="f5d542bc-6a36-4a9f-8792-57d908b20f8c" d="M633.38,940.11a2.71,2.71,0,0,0,1-.18,2.59,2.59,0,0,0,1.44-3.35l-21.35-53.7a2.57,2.57,0,0,0-4.78,1.9L631,938.49A2.57,2.57,0,0,0,633.38,940.11Z"/><path class="ffe413b0-d2e1-4bbd-bbf3-d10fb2954fa0" d="M362.77,259.82c0,3.55-2.09,6.44-4.67,6.44s-4.68-2.89-4.68-6.44,2.09-6.44,4.68-6.44S362.77,256.26,362.77,259.82Z"/><path class="ffe413b0-d2e1-4bbd-bbf3-d10fb2954fa0" d="M368.82,407.58c0,3.56-2.09,6.44-4.68,6.44s-4.67-2.88-4.67-6.44,2.09-6.43,4.67-6.43S368.82,404,368.82,407.58Z"/><path class="ffe413b0-d2e1-4bbd-bbf3-d10fb2954fa0" d="M364.14,329.76c0,3.56-2.09,6.44-4.67,6.44s-4.68-2.88-4.68-6.44,2.1-6.43,4.68-6.43S364.14,326.21,364.14,329.76Z"/><path class="f5d542bc-6a36-4a9f-8792-57d908b20f8c" d="M434.2,75.52a2.09,2.09,0,0,1-1.83-2.29l.37-3.29a2.07,2.07,0,0,1,4.12.46l-.37,3.29A2.08,2.08,0,0,1,434.2,75.52Z"/><path class="f5d542bc-6a36-4a9f-8792-57d908b20f8c" d="M457.71,78.21a2.08,2.08,0,0,1-1.83-2.29l.37-3.29a2.07,2.07,0,1,1,4.12.46L460,76.38A2.09,2.09,0,0,1,457.71,78.21Z"/><path class="a5c9ff23-b157-45b5-92aa-fee3edb2c9a6" d="M820.62,867.44c14.72,4.66,31.3,38.39,24.24,63.06s-9.82,30-15.58,46.72c-3.13,9.07-14.73,48.55-23.76,48.48l-13.11-.1A5.09,5.09,0,0,1,788,1018c3.23-5.48,7.2-13.2,9-20.54,2.57-10.54,3.41-74.85.91-90.38C797.85,907.06,805.9,862.78,820.62,867.44Z"/><path class="acb65cca-18f9-41d1-a266-f9d3cf1efaf9" d="M904.73,869.86S942.1,885,935,924.35c-2.3,12.76,8.43,32.54,14.89,43.24A28.2,28.2,0,0,1,952.15,992l-10.57,28.8a5.56,5.56,0,0,1-5.26,3.59H914.5c-4.22,0,2.91-10.78,4.92-14.37,6.48-11.57,6.35-26.63-2.21-39.43-12.15-18.15-28.18-18.86-31.88-37S904.73,869.86,904.73,869.86Z"/><path class="a18daecc-83b8-46e4-b015-8f2f7d7187ed" d="M844.3,864.56s97.31,0,114.1,2.58c11.35,1.92,19.41,10.1,25.26,20.75l-31.6,63.48-97.42-.4L834.47,848.91Z"/><path class="a18daecc-83b8-46e4-b015-8f2f7d7187ed" d="M755.67,806.31a38.34,38.34,0,0,0,15.57,4.33c8.33.26,25.64-15.54,43.92,0s12.77,26.56,23.37,40.56l-15.4,25.64c5.73-5.62,11.11-9.66,14.48-9.28,15.49,1.76,39.74,31.56,38.72,57s-2.44,31.16-4.08,48.6c-.89,9.47-2.81,50.24-11.65,51.89l-12.82.48c-3.89.73-7.32-1-6.18-4.69,1.84-6,3.88-14.27,3.88-21.77,0-10.8-6.41-38-12.56-52.68,0,0-27-15.6-35.07-39.34l-5-28.18s-52.62-39.82-56.43-43.63S739.3,800,755.67,806.31Z"/><path class="a18daecc-83b8-46e4-b015-8f2f7d7187ed" d="M983.66,887.89c-.39-.38,9-26.51,9.46-28.67,3.92-19.18,3.33-40.29-7.35-57.29-1.22-1.93-2.8-4-5.07-4.26-6.32-.85-3.07,12.54-3,15.93.34,12.88.1,26.2-3.46,38.68-.39,1.39-7.9,18.83-9.19,17.58Z"/><path class="f5d542bc-6a36-4a9f-8792-57d908b20f8c" d="M782.8,822.85a2.08,2.08,0,0,1-.17-2.93l2.2-2.47a2.08,2.08,0,1,1,3.1,2.76l-2.21,2.47A2.08,2.08,0,0,1,782.8,822.85Z"/><path class="a5c9ff23-b157-45b5-92aa-fee3edb2c9a6" d="M761.59,855c1,.75,2,1.51,3,2.26C763.58,856.5,762.59,855.74,761.59,855Z"/><path class="a5c9ff23-b157-45b5-92aa-fee3edb2c9a6" d="M761.59,855c-11.72-8.94-23.37-17.93-25.18-19.75-.71-.71-1.06-2.4-1-4.63.07-7.8,4.6-22.22,13.34-24.76a10,10,0,0,1,4-.31,12.39,12.39,0,0,1,2.95.77s1,.57,2.73,1.3c.57.24,1.22.5,1.93.76a35.71,35.71,0,0,0,10.91,2.27S760,835.06,761.59,855Z"/><path class="a5c9ff23-b157-45b5-92aa-fee3edb2c9a6" d="M765.71,858.12l2.27,1.73Z"/><path class="a5c9ff23-b157-45b5-92aa-fee3edb2c9a6" d="M875.47,930.8h64.12c.64,5.34,8.85,23.24,8.42,20.23l-72.62,0Z"/><path class="f5d542bc-6a36-4a9f-8792-57d908b20f8c" d="M875.39,953.56a2.56,2.56,0,0,0,2.56-2.37c1.22-15,3.39-39.63,4.06-42a2.58,2.58,0,0,0-5-1.4c-1,3.58-3.7,36.45-4.23,43a2.58,2.58,0,0,0,2.36,2.77Z"/><path class="f5d542bc-6a36-4a9f-8792-57d908b20f8c" d="M755.67,806.31s.7.39,1.91.93c0,0-6.05,13.31-18.7,8.82C742.19,808.92,747.82,803.26,755.67,806.31Z"/><path class="f5d542bc-6a36-4a9f-8792-57d908b20f8c" d="M749.75,838.11a23.68,23.68,0,0,0,8.9-2,2.58,2.58,0,0,0-2.14-4.69c-2,.91-7.84,2.71-11,.3a2.57,2.57,0,1,0-3.11,4.1A11.93,11.93,0,0,0,749.75,838.11Z"/><path class="a18daecc-83b8-46e4-b015-8f2f7d7187ed" d="M964,868.65s32.23,16.3,25.1,55.7c-2.31,12.76,8.42,32.54,14.89,43.24a28.2,28.2,0,0,1,2.29,24.37l-10.61,28.88a5.43,5.43,0,0,1-5.14,3.51h-22.1c-4.13,0,.5-9.14,2.47-12.65,6.48-11.53,9-28.29.43-41.15-12.14-18.15-28.18-18.86-31.87-37S964,868.65,964,868.65Z"/><path class="acb65cca-18f9-41d1-a266-f9d3cf1efaf9" d="M826.56,817s25.37,27.24,29.37,37.42-13.57,56.65-30,54.08S795.28,891.61,804.43,871s11.47-27.08,9.73-37.2S820.66,810.47,826.56,817Z"/><path class="f5d542bc-6a36-4a9f-8792-57d908b20f8c" d="M948,953.56a2.51,2.51,0,0,0,1.18-.29,2.59,2.59,0,0,0,1.1-3.48c-15.54-29.81-3-47.62-2.46-48.36a2.58,2.58,0,0,0-4.15-3.06c-.62.84-15.06,21,2,53.81A2.6,2.6,0,0,0,948,953.56Z"/><path class="a5c9ff23-b157-45b5-92aa-fee3edb2c9a6" d="M994.08,823.85c-3.09,3.41-7.54,7.26-16.39,4.65.2-5,.15-10,0-14.9-.08-3.39-3.33-16.78,3-15.93,2.27.3,3.85,2.33,5.07,4.26A61.54,61.54,0,0,1,994.08,823.85Z"/><path class="a5c9ff23-b157-45b5-92aa-fee3edb2c9a6" d="M976.51,994.9a22.79,22.79,0,0,1,25.93,7.63l-6.73,18.31a5.43,5.43,0,0,1-5.14,3.51h-22.1c-4.13,0,.5-9.14,2.47-12.65A47.19,47.19,0,0,0,976.51,994.9Z"/><path class="a5c9ff23-b157-45b5-92aa-fee3edb2c9a6" d="M856.51,993.53A22.62,22.62,0,0,1,870,997.94c-1.64,13.06-4.42,26.2-9.36,27.12l-12.82.48c-3.89.73-7.32-1-6.18-4.69,1.84-6,3.88-14.27,3.88-21.77,0-.8,0-1.68-.11-2.64A22.66,22.66,0,0,1,856.51,993.53Z"/><path class="f5d542bc-6a36-4a9f-8792-57d908b20f8c" d="M725.53,930.75c1,0,1.93,0,2.91,0,36.08-.81,66.22-17.22,76.8-41.8a2.58,2.58,0,0,0-4.73-2c-9.63,22.39-38.64,37.93-72.19,38.7-50.82,1-96.13-29.11-121.27-81-29.45-60.74-36.81-175.37-38.65-227.44C581.84,670,621.91,784,718.76,794.94c26.49,3,48.72-3.6,66.1-19.6,32.57-30,47.72-91.5,45-182.9-.1-3.62-.18-6.11-.12-7.18a2.58,2.58,0,0,0-2.43-2.72,2.53,2.53,0,0,0-2.72,2.43c-.06,1.14,0,3.77.12,7.62,2.65,89.84-12,150-43.36,179-16.24,15-37.13,21.08-62,18.28-121.9-13.78-151.3-198.1-151.58-200a2.62,2.62,0,0,0-2.74-2.19,2.57,2.57,0,0,0-2.38,2.57c0,1.75.56,175.73,39.78,256.61C628,899.58,673.84,930.74,725.53,930.75Z"/><path class="f0e4463b-4588-4f5d-a930-9f5dff2cfa52" d="M929.76,536.56s-57.08,27.52-107.29,15.08c0,0-.85,25.75,0,36.47,0,0,82.83,8.16,118.88-22.61C941.35,565.5,932.34,540.37,929.76,536.56Z"/><path class="a3c35b85-6abe-4092-9fd0-a4573809cf66" d="M876.2,567.94a5.52,5.52,0,1,0,5.52-5.51A5.52,5.52,0,0,0,876.2,567.94Z"/><path class="a3c35b85-6abe-4092-9fd0-a4573809cf66" d="M913.43,558.79a5.52,5.52,0,1,0,5.51-5.52A5.52,5.52,0,0,0,913.43,558.79Z"/><path class="a3c35b85-6abe-4092-9fd0-a4573809cf66" d="M835.32,571a5.52,5.52,0,1,0,5.52-5.52A5.52,5.52,0,0,0,835.32,571Z"/><path class="f5d542bc-6a36-4a9f-8792-57d908b20f8c" d="M467.28,275.56a3.79,3.79,0,0,0,.58-.05c1.39-.22,2.25-1.18,1.93-2.14-1.43-4.33-8.64-26-9.23-27.18a2.93,2.93,0,0,0-3.26-1.12c-1.34.31-2.07,1.32-1.62,2.25s5.7,16.63,9.1,26.85A2.56,2.56,0,0,0,467.28,275.56Z"/><path class="e96b23a5-8556-4caa-830c-1f7eb79a7fbd" d="M127.69,160.83c0-2.74,29.53-23.29,29.53-23.29,2-.12,4.22-.5,6.2,2.23,4.18,5.75-6.73,15.58-6.73,15.58a25.66,25.66,0,0,1,5.84-2.74c1.83-.61,4.67.75,5.67,2.78,4,8.06-8.41,18.55-8.41,18.55s10-5.47,12-3.24c7.37,8.27-5.31,16.81-11.3,21.17,9.77-6.44,13.74-2.13,14.59-.57,3.54,6.49-9.58,15-14.59,17.88-4.39,2.49-14.93,7.62-19.4,5.52-7.31-3.44-7.19-20.15-7.8-26.43C132.05,175.8,127.9,178.31,127.69,160.83Zm27.8,20.37a1.85,1.85,0,0,0-.2.3Z"/><path class="f5d542bc-6a36-4a9f-8792-57d908b20f8c" d="M145,203.38a2.61,2.61,0,0,0,1.28-.34c6.75-3.87,26.79-16,26.79-16l-2.67-4.4s-20,12.06-26.68,15.92a2.57,2.57,0,0,0,1.28,4.8Z"/><path class="f5d542bc-6a36-4a9f-8792-57d908b20f8c" d="M140.28,189.29a2.52,2.52,0,0,0,1.59-.55c5.28-4.15,27.73-18.89,28-19a2.57,2.57,0,1,0-2.83-4.3c-.93.61-22.86,15-28.32,19.3a2.57,2.57,0,0,0,1.6,4.59Z"/><path class="f5d542bc-6a36-4a9f-8792-57d908b20f8c" d="M137.27,174a2.58,2.58,0,0,0,2.08-1.05c3.07-4.2,19.83-16,26-20.26a2.58,2.58,0,0,0-2.9-4.26c-2.35,1.6-23.14,15.8-27.29,21.48a2.57,2.57,0,0,0,2.08,4.09Z"/><path class="f5d542bc-6a36-4a9f-8792-57d908b20f8c" d="M154.35,214.81a2.48,2.48,0,0,0,1.09-.25l17.4-8.2a2.57,2.57,0,1,0-2.19-4.66l-17.4,8.2a2.58,2.58,0,0,0,1.1,4.91Z"/><path class="a69eb842-b9cb-485d-ba02-ae9894b019e9" d="M195.83,20.29c11.39.52,24.29,9.79,22.27,22.19-1.2,7.3-7.25,12.64-12.41,18-9.28,9.57-7.25,17.17-8.2,29.19-.47,5.89-4.12,11.59-9.58,13.86-6.51,2.71-17.43-.87-17.65-9.16-.09-3.4,2.38-6.25,4.1-9.18,3.3-5.63,4.09-12.45,3.43-19-1-10-6.83-19.5-4.38-29.7,2.22-9.23,11.45-16,21-16.21C194.84,20.27,195.34,20.27,195.83,20.29Z"/><path class="f5d542bc-6a36-4a9f-8792-57d908b20f8c" d="M2.57,1029.11h1276.2a2.58,2.58,0,1,0,0-5.15H2.57a2.58,2.58,0,0,0,0,5.15Z"/><path class="e950d20d-5055-49b5-9a8e-a417cadea542" d="M702.8,880.84c1.18-6.49,6-18.5,12.61-14.33,3.69,2.32,4.6,13.22,2,16.42-.31-.42-.44-1-.76-1.37a16.15,16.15,0,0,1-6.73,7.1,5.58,5.58,0,0,1-4.48.73c-2.29-.84-2.95-3.76-2.88-6.19A16.3,16.3,0,0,1,702.8,880.84Z"/><path class="e9f4ffb1-471d-4dcf-a13c-ec85d3a6308a" d="M658.8,831.77a44.22,44.22,0,0,1,4.14-13.11c2.63-5.21,6.91-9.8,12.43-11.67,7.69-2.6,15.28.72,17,8.65.85,3.89.3,7.94-.54,11.83a80.66,80.66,0,0,1-13.12,29.68c-2.27,3.19-4.89,6.3-8.4,8-1.65.82-3.67,1.29-5.32.46s-2.47-2.7-3.09-4.46A61.61,61.61,0,0,1,658.8,831.77Z"/><path class="e9f4ffb1-471d-4dcf-a13c-ec85d3a6308a" d="M178.21,765.54c4.52-7.26,13.62-2.07,17.71,3,3.25,4,5,9,6.29,14,.56,2.23.91,4.91-.71,6.55a5.78,5.78,0,0,1-3.55,1.41c-10.51,1.18-20.79-9.39-21.06-19.65A9.35,9.35,0,0,1,178.21,765.54Z"/><path class="e96b23a5-8556-4caa-830c-1f7eb79a7fbd" d="M501.62,562.83s-9.47,17.33-9.18,22.58,7.05,21.77,6,31,6.13,19.27,12.88,19.18a25.71,25.71,0,0,0,11.15-2.5s4.74,4.31,13,2.31,8.2-8,8.2-8,3.34,3.11,10.52,1.91c6.56-1.1,10.08-9.7,10.08-9.7s3.26,2.3,6.51-2.26,6.38-18.69,6.38-18.69l-6-36.54Z"/><path class="f5d542bc-6a36-4a9f-8792-57d908b20f8c" d="M564,625.16a2.57,2.57,0,0,0,2.55-2.26l1.24-10.3a2.57,2.57,0,1,0-5.11-.62l-1.24,10.3a2.58,2.58,0,0,0,2.25,2.87Z"/><path class="f5d542bc-6a36-4a9f-8792-57d908b20f8c" d="M545.82,632.3a2.58,2.58,0,0,0,2.57-2.39l.94-13.34a2.58,2.58,0,0,0-2.39-2.76,2.55,2.55,0,0,0-2.75,2.39l-.94,13.34a2.58,2.58,0,0,0,2.39,2.76Z"/><path class="f5d542bc-6a36-4a9f-8792-57d908b20f8c" d="M525.07,633.18s.58-12,.58-13.59a2.58,2.58,0,1,0-5.15,0c0,1.55-.57,13.34-.57,13.34Z"/><path class="f5d542bc-6a36-4a9f-8792-57d908b20f8c" d="M498.47,622.16a2.57,2.57,0,0,0,2.57-2.57v-20.1a2.58,2.58,0,0,0-5.15,0v20.1A2.58,2.58,0,0,0,498.47,622.16Z"/><path class="f5d542bc-6a36-4a9f-8792-57d908b20f8c" d="M726.86,441a2.57,2.57,0,0,0,2.17-4l-30.4-47.5a2.58,2.58,0,0,0-4.34,2.78l30.4,47.5A2.56,2.56,0,0,0,726.86,441Z"/><path class="f5d542bc-6a36-4a9f-8792-57d908b20f8c" d="M687.75,473a2.58,2.58,0,0,0,.19-5.15l-43-3.14a2.54,2.54,0,0,0-2.76,2.38,2.57,2.57,0,0,0,2.38,2.75l43,3.15Z"/><path class="f5d542bc-6a36-4a9f-8792-57d908b20f8c" d="M684.26,542.36a2.56,2.56,0,0,0,1.63-.58l34.65-28.33a2.58,2.58,0,0,0-3.26-4l-34.65,28.33a2.58,2.58,0,0,0,1.63,4.57Z"/><path class="f5d542bc-6a36-4a9f-8792-57d908b20f8c" d="M485.08,502.83a49.66,49.66,0,0,0,7.78-.55,2.57,2.57,0,1,0-.84-5.07c-.17,0-17,2.65-27.3-5.08-4.45-3.32-7.11-8.18-7.9-14.45-3.35-26.6-2.77-34.46-2.77-34.54a2.57,2.57,0,0,0-5.13-.45c0,.32-.66,8.21,2.79,35.63,1,7.72,4.32,13.76,9.94,17.95C468.94,501.71,478.47,502.83,485.08,502.83Z"/><path class="f5d542bc-6a36-4a9f-8792-57d908b20f8c" d="M314.72,502.84c2.95,0,11.16-.45,16.84-5.1,8.2-6.71,4.55-47.06,3.73-55.08a2.62,2.62,0,0,0-2.82-2.3,2.57,2.57,0,0,0-2.3,2.82c2.21,21.78,2.13,47.3-1.87,50.57-5.33,4.36-14.3,3.93-14.39,3.93a2.48,2.48,0,0,0-2.71,2.42,2.56,2.56,0,0,0,2.42,2.71C313.7,502.82,314.09,502.84,314.72,502.84Z"/><path class="fc4e7cd2-3b24-4600-b4d1-37a9a2fb1cb0" d="M306.9,315.86v41.56c-16.07,19-35.76,39.12-52.35,46.21-14.31,6.12-27.62,2.22-39.67-7.58C259.57,392.11,306.9,315.86,306.9,315.86Z"/><path class="f5d542bc-6a36-4a9f-8792-57d908b20f8c" d="M308.17,359.27a2.59,2.59,0,0,0,2.57-2.69c0-.86-3.81-86.12,1.91-139.83a2.57,2.57,0,1,0-5.11-.54c-5.77,54.1-2,139.75-1.94,140.6A2.57,2.57,0,0,0,308.17,359.27Z"/><path class="a085bdfc-53cb-45ec-83c6-3eb5b79a9721" d="M471.94,229.1l14.2,213.82H463.27C465.87,411.56,471.94,229.1,471.94,229.1Z"/><path class="f5d542bc-6a36-4a9f-8792-57d908b20f8c" d="M487.26,445.49a1.88,1.88,0,0,0,.34,0,2.57,2.57,0,0,0,2.22-2.88c-.12-1-12.52-96.89-12.52-223.92a2.58,2.58,0,0,0-5.15,0c0,127.39,12.44,223.62,12.56,224.58A2.58,2.58,0,0,0,487.26,445.49Z"/></g></g></svg>